<svg width="15" height="15" viewBox="0 0 15 15" fill="none" xmlns="http://www.w3.org/2000/svg">
<path d="M7.50007 12.5948C7.42158 12.5946 7.34401 12.5778 7.27239 12.5457C7.20078 12.5136 7.13673 12.4667 7.0844 12.4082L1.84858 6.60187C1.77664 6.52143 1.72948 6.42191 1.71279 6.31529C1.6961 6.20867 1.71059 6.09949 1.75451 6.00092C1.79844 5.90234 1.86993 5.81857 1.96036 5.75969C2.0508 5.7008 2.15633 5.66932 2.26425 5.66903H4.36089V0.559701C4.36089 0.411259 4.41986 0.268897 4.52483 0.163933C4.62979 0.0589684 4.77215 0 4.9206 0H10.081C10.2295 0 10.3718 0.0589684 10.4768 0.163933C10.5818 0.268897 10.6407 0.411259 10.6407 0.559701V5.66754H12.7363C12.8442 5.66783 12.9497 5.69931 13.0402 5.75819C13.1306 5.81708 13.2021 5.90085 13.246 5.99943C13.2899 6.098 13.3044 6.20717 13.2877 6.31379C13.271 6.42041 13.2239 6.51994 13.1519 6.60037L7.91575 12.4097C7.86328 12.4679 7.79917 12.5145 7.72757 12.5464C7.65596 12.5783 7.57846 12.5948 7.50007 12.5948ZM3.52246 6.78694L7.50007 11.1993L11.4781 6.78694H10.081C9.9326 6.78694 9.79024 6.72797 9.68528 6.62301C9.58031 6.51804 9.52134 6.37568 9.52134 6.22724V1.1194H5.4803V6.22724C5.4803 6.37568 5.42133 6.51804 5.31637 6.62301C5.2114 6.72797 5.06904 6.78694 4.9206 6.78694H3.52246Z" fill="black"/>
<path d="M12.5638 15H2.43657C1.79063 14.9993 1.17133 14.7424 0.714549 14.2857C0.257765 13.829 0.000790135 13.2097 0 12.5638V11.1395C0 10.9911 0.0589684 10.8487 0.163933 10.7438C0.268897 10.6388 0.411259 10.5798 0.559701 10.5798C0.708143 10.5798 0.850506 10.6388 0.95547 10.7438C1.06043 10.8487 1.1194 10.9911 1.1194 11.1395V12.5638C1.1199 12.9129 1.25884 13.2476 1.50576 13.4945C1.75268 13.7413 2.08742 13.8802 2.43657 13.8806H12.5638C12.9129 13.8802 13.2476 13.7413 13.4945 13.4945C13.7413 13.2476 13.8802 12.9129 13.8806 12.5638V11.1395C13.8806 10.9911 13.9396 10.8487 14.0445 10.7438C14.1495 10.6388 14.2919 10.5798 14.4403 10.5798C14.5887 10.5798 14.7311 10.6388 14.8361 10.7438C14.941 10.8487 15 10.9911 15 11.1395V12.5638C14.9992 13.2097 14.7423 13.8289 14.2856 14.2856C13.8289 14.7423 13.2097 14.9992 12.5638 15Z" fill="black"/>
</svg>
