<svg width="101" height="100" viewBox="0 0 101 100" fill="none" xmlns="http://www.w3.org/2000/svg">
<path d="M71.0714 97.9375V99.9375H73.0714V97.9375H71.0714ZM2.5 97.9375H0.5V99.9375H2.5V97.9375ZM98.5 98V100H100.5V98H98.5ZM55.3571 22.558C55.3571 32.8071 47.0447 41.116 36.7857 41.116V45.116C49.2513 45.116 59.3571 35.0187 59.3571 22.558H55.3571ZM36.7857 41.116C26.5268 41.116 18.2143 32.8071 18.2143 22.558H14.2143C14.2143 35.0187 24.3201 45.116 36.7857 45.116V41.116ZM18.2143 22.558C18.2143 12.3089 26.5268 4 36.7857 4V0C24.3201 0 14.2143 10.0973 14.2143 22.558H18.2143ZM36.7857 4C47.0447 4 55.3571 12.3089 55.3571 22.558H59.3571C59.3571 10.0973 49.2513 0 36.7857 0V4ZM71.0714 95.9375H2.5V99.9375H71.0714V95.9375ZM4.5 97.9375C4.5 97.928 4.5 97.9184 4.5 97.9089C4.5 97.8994 4.5 97.8899 4.5 97.8804C4.5 97.8709 4.5 97.8614 4.5 97.8519C4.5 97.8424 4.5 97.8329 4.5 97.8234C4.5 97.8139 4.5 97.8044 4.5 97.7949C4.5 97.7854 4.5 97.7759 4.5 97.7664C4.5 97.7569 4.5 97.7474 4.5 97.7379C4.5 97.7284 4.5 97.7189 4.5 97.7094C4.5 97.6999 4.5 97.6904 4.5 97.6809C4.5 97.6714 4.5 97.6619 4.5 97.6525C4.5 97.643 4.5 97.6335 4.5 97.624C4.5 97.6145 4.5 97.605 4.5 97.5955C4.5 97.586 4.5 97.5765 4.5 97.5671C4.5 97.5576 4.5 97.5481 4.5 97.5386C4.5 97.5291 4.5 97.5196 4.5 97.5102C4.5 97.5007 4.5 97.4912 4.5 97.4817C4.5 97.4722 4.5 97.4628 4.5 97.4533C4.5 97.4438 4.5 97.4343 4.5 97.4248C4.5 97.4154 4.5 97.4059 4.5 97.3964C4.5 97.3869 4.5 97.3775 4.5 97.368C4.5 97.3585 4.5 97.3491 4.5 97.3396C4.5 97.3301 4.5 97.3206 4.5 97.3112C4.5 97.3017 4.5 97.2922 4.5 97.2828C4.5 97.2733 4.5 97.2638 4.5 97.2544C4.5 97.2449 4.5 97.2354 4.5 97.226C4.5 97.2165 4.5 97.207 4.5 97.1976C4.5 97.1881 4.5 97.1787 4.5 97.1692C4.5 97.1597 4.5 97.1503 4.5 97.1408C4.5 97.1314 4.5 97.1219 4.5 97.1125C4.5 97.103 4.5 97.0936 4.5 97.0841C4.5 97.0746 4.5 97.0652 4.5 97.0557C4.5 97.0463 4.5 97.0368 4.5 97.0274C4.5 97.0179 4.5 97.0085 4.5 96.999C4.5 96.9896 4.5 96.9801 4.5 96.9707C4.5 96.9613 4.5 96.9518 4.5 96.9424C4.5 96.9329 4.5 96.9235 4.5 96.914C4.5 96.9046 4.5 96.8951 4.5 96.8857C4.5 96.8763 4.5 96.8668 4.5 96.8574C4.5 96.8479 4.5 96.8385 4.5 96.8291C4.5 96.8196 4.5 96.8102 4.5 96.8008C4.5 96.7913 4.5 96.7819 4.5 96.7725C4.5 96.763 4.5 96.7536 4.5 96.7442C4.5 96.7347 4.5 96.7253 4.5 96.7159C4.5 96.7064 4.5 96.697 4.5 96.6876C4.5 96.6782 4.5 96.6687 4.5 96.6593C4.5 96.6499 4.5 96.6405 4.5 96.631C4.5 96.6216 4.5 96.6122 4.5 96.6028C4.5 96.5934 4.5 96.5839 4.5 96.5745C4.5 96.5651 4.5 96.5557 4.5 96.5463C4.5 96.5368 4.5 96.5274 4.5 96.518C4.5 96.5086 4.5 96.4992 4.5 96.4898C4.5 96.4804 4.5 96.4709 4.5 96.4615C4.5 96.4521 4.5 96.4427 4.5 96.4333C4.5 96.4239 4.5 96.4145 4.5 96.4051C4.5 96.3957 4.5 96.3863 4.5 96.3769C4.5 96.3674 4.5 96.358 4.5 96.3486C4.5 96.3392 4.5 96.3298 4.5 96.3204C4.5 96.311 4.5 96.3016 4.5 96.2922C4.5 96.2828 4.5 96.2734 4.5 96.264C4.5 96.2546 4.5 96.2452 4.5 96.2358C4.5 96.2264 4.5 96.217 4.5 96.2077C4.5 96.1983 4.5 96.1889 4.5 96.1795C4.5 96.1701 4.5 96.1607 4.5 96.1513C4.5 96.1419 4.5 96.1325 4.5 96.1231C4.5 96.1138 4.5 96.1044 4.5 96.095C4.5 96.0856 4.5 96.0762 4.5 96.0668C4.5 96.0574 4.5 96.0481 4.5 96.0387C4.5 96.0293 4.5 96.0199 4.5 96.0105C4.5 96.0012 4.5 95.9918 4.5 95.9824C4.5 95.973 4.5 95.9636 4.5 95.9543C4.5 95.9449 4.5 95.9355 4.5 95.9261C4.5 95.9168 4.5 95.9074 4.5 95.898C4.5 95.8887 4.5 95.8793 4.5 95.8699C4.5 95.8605 4.5 95.8512 4.5 95.8418C4.5 95.8324 4.5 95.8231 4.5 95.8137C4.5 95.8043 4.5 95.795 4.5 95.7856C4.5 95.7763 4.5 95.7669 4.5 95.7575C4.5 95.7482 4.5 95.7388 4.5 95.7294C4.5 95.7201 4.5 95.7107 4.5 95.7014C4.5 95.692 4.5 95.6827 4.5 95.6733C4.5 95.6639 4.5 95.6546 4.5 95.6452C4.5 95.6359 4.5 95.6265 4.5 95.6172C4.5 95.6078 4.5 95.5985 4.5 95.5891C4.5 95.5798 4.5 95.5704 4.5 95.5611C4.5 95.5517 4.5 95.5424 4.5 95.5331C4.5 95.5237 4.5 95.5144 4.5 95.505C4.5 95.4957 4.5 95.4863 4.5 95.477C4.5 95.4677 4.5 95.4583 4.5 95.449C4.5 95.4396 4.5 95.4303 4.5 95.421C4.5 95.4116 4.5 95.4023 4.5 95.393C4.5 95.3836 4.5 95.3743 4.5 95.365C4.5 95.3556 4.5 95.3463 4.5 95.337C4.5 95.3276 4.5 95.3183 4.5 95.309C4.5 95.2996 4.5 95.2903 4.5 95.281C4.5 95.2717 4.5 95.2623 4.5 95.253C4.5 95.2437 4.5 95.2344 4.5 95.225C4.5 95.2157 4.5 95.2064 4.5 95.1971C4.5 95.1878 4.5 95.1784 4.5 95.1691C4.5 95.1598 4.5 95.1505 4.5 95.1412C4.5 95.1319 4.5 95.1225 4.5 95.1132C4.5 95.1039 4.5 95.0946 4.5 95.0853C4.5 95.076 4.5 95.0667 4.5 95.0574C4.5 95.048 4.5 95.0387 4.5 95.0294C4.5 95.0201 4.5 95.0108 4.5 95.0015C4.5 94.9922 4.5 94.9829 4.5 94.9736C4.5 94.9643 4.5 94.955 4.5 94.9457C4.5 94.9364 4.5 94.9271 4.5 94.9178C4.5 94.9085 4.5 94.8992 4.5 94.8899C4.5 94.8806 4.5 94.8713 4.5 94.862C4.5 94.8527 4.5 94.8434 4.5 94.8341C4.5 94.8248 4.5 94.8155 4.5 94.8063C4.5 94.797 4.5 94.7877 4.5 94.7784C4.5 94.7691 4.5 94.7598 4.5 94.7505C4.5 94.7412 4.5 94.7319 4.5 94.7227C4.5 94.7134 4.5 94.7041 4.5 94.6948C4.5 94.6855 4.5 94.6763 4.5 94.667C4.5 94.6577 4.5 94.6484 4.5 94.6391C4.5 94.6299 4.5 94.6206 4.5 94.6113C4.5 94.602 4.5 94.5928 4.5 94.5835C4.5 94.5742 4.5 94.5649 4.5 94.5557C4.5 94.5464 4.5 94.5371 4.5 94.5279C4.5 94.5186 4.5 94.5093 4.5 94.5001C4.5 94.4908 4.5 94.4815 4.5 94.4723C4.5 94.463 4.5 94.4537 4.5 94.4445C4.5 94.4352 4.5 94.4259 4.5 94.4167C4.5 94.4074 4.5 94.3982 4.5 94.3889C4.5 94.3796 4.5 94.3704 4.5 94.3611C4.5 94.3519 4.5 94.3426 4.5 94.3334C4.5 94.3241 4.5 94.3149 4.5 94.3056C4.5 94.2964 4.5 94.2871 4.5 94.2779C4.5 94.2686 4.5 94.2594 4.5 94.2501C4.5 94.2409 4.5 94.2316 4.5 94.2224C4.5 94.2131 4.5 94.2039 4.5 94.1946C4.5 94.1854 4.5 94.1762 4.5 94.1669C4.5 94.1577 4.5 94.1484 4.5 94.1392C4.5 94.13 4.5 94.1207 4.5 94.1115C4.5 94.1023 4.5 94.093 4.5 94.0838C4.5 94.0746 4.5 94.0653 4.5 94.0561C4.5 94.0469 4.5 94.0376 4.5 94.0284C4.5 94.0192 4.5 94.0099 4.5 94.0007C4.5 93.9915 4.5 93.9823 4.5 93.973C4.5 93.9638 4.5 93.9546 4.5 93.9454C4.5 93.9361 4.5 93.9269 4.5 93.9177C4.5 93.9085 4.5 93.8993 4.5 93.89C4.5 93.8808 4.5 93.8716 4.5 93.8624C4.5 93.8532 4.5 93.844 4.5 93.8347C4.5 93.8255 4.5 93.8163 4.5 93.8071C4.5 93.7979 4.5 93.7887 4.5 93.7795C4.5 93.7703 4.5 93.7611 4.5 93.7518C4.5 93.7426 4.5 93.7334 4.5 93.7242C4.5 93.715 4.5 93.7058 4.5 93.6966C4.5 93.6874 4.5 93.6782 4.5 93.669C4.5 93.6598 4.5 93.6506 4.5 93.6414C4.5 93.6322 4.5 93.623 4.5 93.6138C4.5 93.6046 4.5 93.5954 4.5 93.5862C4.5 93.577 4.5 93.5679 4.5 93.5587C4.5 93.5495 4.5 93.5403 4.5 93.5311C4.5 93.5219 4.5 93.5127 4.5 93.5035C4.5 93.4943 4.5 93.4852 4.5 93.476C4.5 93.4668 4.5 93.4576 4.5 93.4484C4.5 93.4392 4.5 93.4301 4.5 93.4209C4.5 93.4117 4.5 93.4025 4.5 93.3933C4.5 93.3842 4.5 93.375 4.5 93.3658C4.5 93.3566 4.5 93.3475 4.5 93.3383C4.5 93.3291 4.5 93.3199 4.5 93.3108C4.5 93.3016 4.5 93.2924 4.5 93.2833C4.5 93.2741 4.5 93.2649 4.5 93.2558C4.5 93.2466 4.5 93.2374 4.5 93.2283C4.5 93.2191 4.5 93.2099 4.5 93.2008C4.5 93.1916 4.5 93.1825 4.5 93.1733C4.5 93.1641 4.5 93.155 4.5 93.1458C4.5 93.1367 4.5 93.1275 4.5 93.1184C4.5 93.1092 4.5 93.1001 4.5 93.0909C4.5 93.0818 4.5 93.0726 4.5 93.0635C4.5 93.0543 4.5 93.0452 4.5 93.036C4.5 93.0269 4.5 93.0177 4.5 93.0086C4.5 92.9994 4.5 92.9903 4.5 92.9811C4.5 92.972 4.5 92.9629 4.5 92.9537C4.5 92.9446 4.5 92.9354 4.5 92.9263C4.5 92.9172 4.5 92.908 4.5 92.8989C4.5 92.8897 4.5 92.8806 4.5 92.8715C4.5 92.8623 4.5 92.8532 4.5 92.8441C4.5 92.835 4.5 92.8258 4.5 92.8167C4.5 92.8076 4.5 92.7984 4.5 92.7893C4.5 92.7802 4.5 92.7711 4.5 92.7619C4.5 92.7528 4.5 92.7437 4.5 92.7346C4.5 92.7254 4.5 92.7163 4.5 92.7072C4.5 92.6981 4.5 92.689 4.5 92.6798C4.5 92.6707 4.5 92.6616 4.5 92.6525C4.5 92.6434 4.5 92.6343 4.5 92.6252C4.5 92.6161 4.5 92.6069 4.5 92.5978C4.5 92.5887 4.5 92.5796 4.5 92.5705C4.5 92.5614 4.5 92.5523 4.5 92.5432C4.5 92.5341 4.5 92.525 4.5 92.5159C4.5 92.5068 4.5 92.4977 4.5 92.4886C4.5 92.4795 4.5 92.4704 4.5 92.4613C4.5 92.4522 4.5 92.4431 4.5 92.434C4.5 92.4249 4.5 92.4158 4.5 92.4067C4.5 92.3976 4.5 92.3885 4.5 92.3794C4.5 92.3703 4.5 92.3612 4.5 92.3521C4.5 92.3431 4.5 92.334 4.5 92.3249C4.5 92.3158 4.5 92.3067 4.5 92.2976C4.5 92.2886 4.5 92.2795 4.5 92.2704C4.5 92.2613 4.5 92.2522 4.5 92.2431C4.5 92.2341 4.5 92.225 4.5 92.2159C4.5 92.2068 4.5 92.1978 4.5 92.1887C4.5 92.1796 4.5 92.1705 4.5 92.1615C4.5 92.1524 4.5 92.1433 4.5 92.1343C4.5 92.1252 4.5 92.1161 4.5 92.1071C4.5 92.098 4.5 92.0889 4.5 92.0799C4.5 92.0708 4.5 92.0617 4.5 92.0527C4.5 92.0436 4.5 92.0346 4.5 92.0255C4.5 92.0164 4.5 92.0074 4.5 91.9983C4.5 91.9893 4.5 91.9802 4.5 91.9712C4.5 91.9621 4.5 91.953 4.5 91.944C4.5 91.9349 4.5 91.9259 4.5 91.9168C4.5 91.9078 4.5 91.8988 4.5 91.8897C4.5 91.8807 4.5 91.8716 4.5 91.8626C4.5 91.8535 4.5 91.8445 4.5 91.8354C4.5 91.8264 4.5 91.8174 4.5 91.8083C4.5 91.7993 4.5 91.7902 4.5 91.7812C4.5 91.7722 4.5 91.7631 4.5 91.7541C4.5 91.7451 4.5 91.736 4.5 91.727C4.5 91.718 4.5 91.7089 4.5 91.6999C4.5 91.6909 4.5 91.6818 4.5 91.6728C4.5 91.6638 4.5 91.6548 4.5 91.6457C4.5 91.6367 4.5 91.6277 4.5 91.6187C4.5 91.6096 4.5 91.6006 4.5 91.5916C4.5 91.5826 4.5 91.5736 4.5 91.5645C4.5 91.5555 4.5 91.5465 4.5 91.5375C4.5 91.5285 4.5 91.5195 4.5 91.5105C4.5 91.5014 4.5 91.4924 4.5 91.4834C4.5 91.4744 4.5 91.4654 4.5 91.4564C4.5 91.4474 4.5 91.4384 4.5 91.4294C4.5 91.4204 4.5 91.4114 4.5 91.4024C4.5 91.3934 4.5 91.3844 4.5 91.3754C4.5 91.3664 4.5 91.3574 4.5 91.3484C4.5 91.3394 4.5 91.3304 4.5 91.3214C4.5 91.3124 4.5 91.3034 4.5 91.2944C4.5 91.2854 4.5 91.2764 4.5 91.2674C4.5 91.2584 4.5 91.2494 4.5 91.2405C4.5 91.2315 4.5 91.2225 4.5 91.2135C4.5 91.2045 4.5 91.1955 4.5 91.1866C4.5 91.1776 4.5 91.1686 4.5 91.1596C4.5 91.1506 4.5 91.1417 4.5 91.1327C4.5 91.1237 4.5 91.1147 4.5 91.1057C4.5 91.0968 4.5 91.0878 4.5 91.0788C4.5 91.0699 4.5 91.0609 4.5 91.0519C4.5 91.0429 4.5 91.034 4.5 91.025C4.5 91.016 4.5 91.0071 4.5 90.9981C4.5 90.9892 4.5 90.9802 4.5 90.9712C4.5 90.9623 4.5 90.9533 4.5 90.9443C4.5 90.9354 4.5 90.9264 4.5 90.9175C4.5 90.9085 4.5 90.8996 4.5 90.8906C4.5 90.8817 4.5 90.8727 4.5 90.8637C4.5 90.8548 4.5 90.8458 4.5 90.8369C4.5 90.8279 4.5 90.819 4.5 90.8101C4.5 90.8011 4.5 90.7922 4.5 90.7832C4.5 90.7743 4.5 90.7653 4.5 90.7564C4.5 90.7474 4.5 90.7385 4.5 90.7296C4.5 90.7206 4.5 90.7117 4.5 90.7028C4.5 90.6938 4.5 90.6849 4.5 90.6759C4.5 90.667 4.5 90.6581 4.5 90.6492C4.5 90.6402 4.5 90.6313 4.5 90.6224C4.5 90.6134 4.5 90.6045 4.5 90.5956C4.5 90.5867 4.5 90.5777 4.5 90.5688C4.5 90.5599 4.5 90.551 4.5 90.542C4.5 90.5331 4.5 90.5242 4.5 90.5153C4.5 90.5064 4.5 90.4975 4.5 90.4885C4.5 90.4796 4.5 90.4707 4.5 90.4618C4.5 90.4529 4.5 90.444 4.5 90.4351C4.5 90.4262 4.5 90.4172 4.5 90.4083C4.5 90.3994 4.5 90.3905 4.5 90.3816C4.5 90.3727 4.5 90.3638 4.5 90.3549C4.5 90.346 4.5 90.3371 4.5 90.3282C4.5 90.3193 4.5 90.3104 4.5 90.3015C4.5 90.2926 4.5 90.2837 4.5 90.2748C4.5 90.2659 4.5 90.257 4.5 90.2481C4.5 90.2393 4.5 90.2304 4.5 90.2215C4.5 90.2126 4.5 90.2037 4.5 90.1948C4.5 90.1859 4.5 90.177 4.5 90.1682C4.5 90.1593 4.5 90.1504 4.5 90.1415C4.5 90.1326 4.5 90.1237 4.5 90.1149C4.5 90.106 4.5 90.0971 4.5 90.0882C4.5 90.0794 4.5 90.0705 4.5 90.0616C4.5 90.0527 4.5 90.0439 4.5 90.035C4.5 90.0261 4.5 90.0173 4.5 90.0084C4.5 89.9995 4.5 89.9907 4.5 89.9818C4.5 89.9729 4.5 89.9641 4.5 89.9552C4.5 89.9463 4.5 89.9375 4.5 89.9286C4.5 89.9198 4.5 89.9109 4.5 89.902C4.5 89.8932 4.5 89.8843 4.5 89.8755C4.5 89.8666 4.5 89.8578 4.5 89.8489C4.5 89.8401 4.5 89.8312 4.5 89.8224C4.5 89.8135 4.5 89.8047 4.5 89.7958C4.5 89.787 4.5 89.7781 4.5 89.7693C4.5 89.7604 4.5 89.7516 4.5 89.7428C4.5 89.7339 4.5 89.7251 4.5 89.7162C4.5 89.7074 4.5 89.6986 4.5 89.6897C4.5 89.6809 4.5 89.6721 4.5 89.6632C4.5 89.6544 4.5 89.6456 4.5 89.6367C4.5 89.6279 4.5 89.6191 4.5 89.6103C4.5 89.6014 4.5 89.5926 4.5 89.5838C4.5 89.5749 4.5 89.5661 4.5 89.5573C4.5 89.5485 4.5 89.5397 4.5 89.5308C4.5 89.522 4.5 89.5132 4.5 89.5044C4.5 89.4956 4.5 89.4868 4.5 89.4779C4.5 89.4691 4.5 89.4603 4.5 89.4515C4.5 89.4427 4.5 89.4339 4.5 89.4251C4.5 89.4163 4.5 89.4075 4.5 89.3987C4.5 89.3898 4.5 89.381 4.5 89.3722C4.5 89.3634 4.5 89.3546 4.5 89.3458C4.5 89.337 4.5 89.3282 4.5 89.3194C4.5 89.3106 4.5 89.3018 4.5 89.2931C4.5 89.2843 4.5 89.2755 4.5 89.2667C4.5 89.2579 4.5 89.2491 4.5 89.2403C4.5 89.2315 4.5 89.2227 4.5 89.2139C4.5 89.2051 4.5 89.1964 4.5 89.1876C4.5 89.1788 4.5 89.17 4.5 89.1612C4.5 89.1525 4.5 89.1437 4.5 89.1349C4.5 89.1261 4.5 89.1173 4.5 89.1086C4.5 89.0998 4.5 89.091 4.5 89.0822C4.5 89.0735 4.5 89.0647 4.5 89.0559C4.5 89.0472 4.5 89.0384 4.5 89.0296C4.5 89.0209 4.5 89.0121 4.5 89.0033C4.5 88.9946 4.5 88.9858 4.5 88.977C4.5 88.9683 4.5 88.9595 4.5 88.9508C4.5 88.942 4.5 88.9332 4.5 88.9245C4.5 88.9157 4.5 88.907 4.5 88.8982C4.5 88.8895 4.5 88.8807 4.5 88.872C4.5 88.8632 4.5 88.8545 4.5 88.8457C4.5 88.837 4.5 88.8282 4.5 88.8195C4.5 88.8107 4.5 88.802 4.5 88.7932C4.5 88.7845 4.5 88.7758 4.5 88.767C4.5 88.7583 4.5 88.7495 4.5 88.7408C4.5 88.7321 4.5 88.7233 4.5 88.7146C4.5 88.7059 4.5 88.6971 4.5 88.6884C4.5 88.6797 4.5 88.671 4.5 88.6622C4.5 88.6535 4.5 88.6448 4.5 88.636C4.5 88.6273 4.5 88.6186 4.5 88.6099C4.5 88.6012 4.5 88.5924 4.5 88.5837C4.5 88.575 4.5 88.5663 4.5 88.5576C4.5 88.5488 4.5 88.5401 4.5 88.5314C4.5 88.5227 4.5 88.514 4.5 88.5053C4.5 88.4966 4.5 88.4878 4.5 88.4791C4.5 88.4704 4.5 88.4617 4.5 88.453C4.5 88.4443 4.5 88.4356 4.5 88.4269C4.5 88.4182 4.5 88.4095 4.5 88.4008C4.5 88.3921 4.5 88.3834 4.5 88.3747C4.5 88.366 4.5 88.3573 4.5 88.3486C4.5 88.3399 4.5 88.3312 4.5 88.3225C4.5 88.3139 4.5 88.3052 4.5 88.2965C4.5 88.2878 4.5 88.2791 4.5 88.2704C4.5 88.2617 4.5 88.2531 4.5 88.2444C4.5 88.2357 4.5 88.227 4.5 88.2183C4.5 88.2096 4.5 88.201 4.5 88.1923C4.5 88.1836 4.5 88.1749 4.5 88.1663C4.5 88.1576 4.5 88.1489 4.5 88.1402C4.5 88.1316 4.5 88.1229 4.5 88.1142C4.5 88.1056 4.5 88.0969 4.5 88.0882C4.5 88.0796 4.5 88.0709 4.5 88.0622C4.5 88.0536 4.5 88.0449 4.5 88.0363C4.5 88.0276 4.5 88.0189 4.5 88.0103C4.5 88.0016 4.5 87.993 4.5 87.9843C4.5 87.9757 4.5 87.967 4.5 87.9584C4.5 87.9497 4.5 87.9411 4.5 87.9324C4.5 87.9238 4.5 87.9151 4.5 87.9065C4.5 87.8978 4.5 87.8892 4.5 87.8805C4.5 87.8719 4.5 87.8633 4.5 87.8546C4.5 87.846 4.5 87.8373 4.5 87.8287C4.5 87.8201 4.5 87.8114 4.5 87.8028C4.5 87.7942 4.5 87.7855 4.5 87.7769C4.5 87.7683 4.5 87.7597 4.5 87.751C4.5 87.7424 4.5 87.7338 4.5 87.7251C4.5 87.7165 4.5 87.7079 4.5 87.6993C4.5 87.6907 4.5 87.682 4.5 87.6734C4.5 87.6648 4.5 87.6562 4.5 87.6476C4.5 87.6389 4.5 87.6303 4.5 87.6217C4.5 87.6131 4.5 87.6045 4.5 87.5959C4.5 87.5873 4.5 87.5787 4.5 87.5701C4.5 87.5615 4.5 87.5528 4.5 87.5442C4.5 87.5356 4.5 87.527 4.5 87.5184C4.5 87.5098 4.5 87.5012 4.5 87.4926C4.5 87.484 4.5 87.4754 4.5 87.4669C4.5 87.4583 4.5 87.4497 4.5 87.4411C4.5 87.4325 4.5 87.4239 4.5 87.4153C4.5 87.4067 4.5 87.3981 4.5 87.3895C4.5 87.3809 4.5 87.3724 4.5 87.3638C4.5 87.3552 4.5 87.3466 4.5 87.338C4.5 87.3295 4.5 87.3209 4.5 87.3123C4.5 87.3037 4.5 87.2951 4.5 87.2866C4.5 87.278 4.5 87.2694 4.5 87.2608C4.5 87.2523 4.5 87.2437 4.5 87.2351C4.5 87.2266 4.5 87.218 4.5 87.2094C4.5 87.2009 4.5 87.1923 4.5 87.1837C4.5 87.1752 4.5 87.1666 4.5 87.1581C4.5 87.1495 4.5 87.1409 4.5 87.1324C4.5 87.1238 4.5 87.1153 4.5 87.1067C4.5 87.0982 4.5 87.0896 4.5 87.0811C4.5 87.0725 4.5 87.064 4.5 87.0554C4.5 87.0469 4.5 87.0383 4.5 87.0298C4.5 87.0212 4.5 87.0127 4.5 87.0042C4.5 86.9956 4.5 86.9871 4.5 86.9785C4.5 86.97 4.5 86.9615 4.5 86.9529C4.5 86.9444 4.5 86.9359 4.5 86.9273C4.5 86.9188 4.5 86.9103 4.5 86.9017C4.5 86.8932 4.5 86.8847 4.5 86.8761C4.5 86.8676 4.5 86.8591 4.5 86.8506C4.5 86.842 4.5 86.8335 4.5 86.825C4.5 86.8165 4.5 86.808 4.5 86.7994C4.5 86.7909 4.5 86.7824 4.5 86.7739C4.5 86.7654 4.5 86.7569 4.5 86.7484C4.5 86.7398 4.5 86.7313 4.5 86.7228C4.5 86.7143 4.5 86.7058 4.5 86.6973C4.5 86.6888 4.5 86.6803 4.5 86.6718C4.5 86.6633 4.5 86.6548 4.5 86.6463C4.5 86.6378 4.5 86.6293 4.5 86.6208C4.5 86.6123 4.5 86.6038 4.5 86.5953C4.5 86.5868 4.5 86.5783 4.5 86.5698C4.5 86.5613 4.5 86.5529 4.5 86.5444C4.5 86.5359 4.5 86.5274 4.5 86.5189C4.5 86.5104 4.5 86.502 4.5 86.4935C4.5 86.485 4.5 86.4765 4.5 86.468C4.5 86.4596 4.5 86.4511 4.5 86.4426C4.5 86.4341 4.5 86.4257 4.5 86.4172C4.5 86.4087 4.5 86.4002 4.5 86.3918C4.5 86.3833 4.5 86.3748 4.5 86.3664C4.5 86.3579 4.5 86.3494 4.5 86.341C4.5 86.3325 4.5 86.3241 4.5 86.3156C4.5 86.3071 4.5 86.2987 4.5 86.2902C4.5 86.2818 4.5 86.2733 4.5 86.2649C4.5 86.2564 4.5 86.248 4.5 86.2395C4.5 86.2311 4.5 86.2226 4.5 86.2142C4.5 86.2057 4.5 86.1973 4.5 86.1888C4.5 86.1804 4.5 86.1719 4.5 86.1635C4.5 86.1551 4.5 86.1466 4.5 86.1382C4.5 86.1297 4.5 86.1213 4.5 86.1129C4.5 86.1044 4.5 86.096 4.5 86.0876C4.5 86.0791 4.5 86.0707 4.5 86.0623C4.5 86.0539 4.5 86.0454 4.5 86.037C4.5 86.0286 4.5 86.0202 4.5 86.0117C4.5 86.0033 4.5 85.9949 4.5 85.9865C4.5 85.9781 4.5 85.9696 4.5 85.9612C4.5 85.9528 4.5 85.9444 4.5 85.936C4.5 85.9276 4.5 85.9192 4.5 85.9108C4.5 85.9023 4.5 85.8939 4.5 85.8855C4.5 85.8771 4.5 85.8687 4.5 85.8603C4.5 85.8519 4.5 85.8435 4.5 85.8351C4.5 85.8267 4.5 85.8183 4.5 85.8099C4.5 85.8015 4.5 85.7931 4.5 85.7847C4.5 85.7763 4.5 85.7679 4.5 85.7596C4.5 85.7512 4.5 85.7428 4.5 85.7344C4.5 85.726 4.5 85.7176 4.5 85.7092C4.5 85.7008 4.5 85.6925 4.5 85.6841C4.5 85.6757 4.5 85.6673 4.5 85.6589C4.5 85.6506 4.5 85.6422 4.5 85.6338C4.5 85.6254 4.5 85.6171 4.5 85.6087C4.5 85.6003 4.5 85.5919 4.5 85.5836C4.5 85.5752 4.5 85.5668 4.5 85.5585C4.5 85.5501 4.5 85.5418 4.5 85.5334C4.5 85.525 4.5 85.5167 4.5 85.5083C4.5 85.4999 4.5 85.4916 4.5 85.4832C4.5 85.4749 4.5 85.4665 4.5 85.4582C4.5 85.4498 4.5 85.4415 4.5 85.4331C4.5 85.4248 4.5 85.4164 4.5 85.4081C4.5 85.3997 4.5 85.3914 4.5 85.383C4.5 85.3747 4.5 85.3664 4.5 85.358C4.5 85.3497 4.5 85.3413 4.5 85.333C4.5 85.3247 4.5 85.3163 4.5 85.308C4.5 85.2997 4.5 85.2913 4.5 85.283C4.5 85.2747 4.5 85.2663 4.5 85.258C4.5 85.2497 4.5 85.2414 4.5 85.233C4.5 85.2247 4.5 85.2164 4.5 85.2081C4.5 85.1998 4.5 85.1914 4.5 85.1831C4.5 85.1748 4.5 85.1665 4.5 85.1582C4.5 85.1499 4.5 85.1415 4.5 85.1332C4.5 85.1249 4.5 85.1166 4.5 85.1083C4.5 85.1 4.5 85.0917 4.5 85.0834C4.5 85.0751 4.5 85.0668 4.5 85.0585C4.5 85.0502 4.5 85.0419 4.5 85.0336C4.5 85.0253 4.5 85.017 4.5 85.0087C4.5 85.0004 4.5 84.9921 4.5 84.9838C4.5 84.9755 4.5 84.9672 4.5 84.959C4.5 84.9507 4.5 84.9424 4.5 84.9341C4.5 84.9258 4.5 84.9175 4.5 84.9092C4.5 84.901 4.5 84.8927 4.5 84.8844C4.5 84.8761 4.5 84.8678 4.5 84.8596C4.5 84.8513 4.5 84.843 4.5 84.8348C4.5 84.8265 4.5 84.8182 4.5 84.8099C4.5 84.8017 4.5 84.7934 4.5 84.7851C4.5 84.7769 4.5 84.7686 4.5 84.7604C4.5 84.7521 4.5 84.7438 4.5 84.7356C4.5 84.7273 4.5 84.7191 4.5 84.7108C4.5 84.7025 4.5 84.6943 4.5 84.686C4.5 84.6778 4.5 84.6695 4.5 84.6613C4.5 84.653 4.5 84.6448 4.5 84.6365C4.5 84.6283 4.5 84.6201 4.5 84.6118C4.5 84.6036 4.5 84.5953 4.5 84.5871C4.5 84.5788 4.5 84.5706 4.5 84.5624C4.5 84.5541 4.5 84.5459 4.5 84.5377C4.5 84.5294 4.5 84.5212 4.5 84.513C4.5 84.5048 4.5 84.4965 4.5 84.4883C4.5 84.4801 4.5 84.4718 4.5 84.4636C4.5 84.4554 4.5 84.4472 4.5 84.439C4.5 84.4307 4.5 84.4225 4.5 84.4143C4.5 84.4061 4.5 84.3979 4.5 84.3897C4.5 84.3815 4.5 84.3732 4.5 84.365C4.5 84.3568 4.5 84.3486 4.5 84.3404C4.5 84.3322 4.5 84.324 4.5 84.3158C4.5 84.3076 4.5 84.2994 4.5 84.2912C4.5 84.283 4.5 84.2748 4.5 84.2666C4.5 84.2584 4.5 84.2502 4.5 84.242H0.5C0.5 84.2502 0.5 84.2584 0.5 84.2666C0.5 84.2748 0.5 84.283 0.5 84.2912C0.5 84.2994 0.5 84.3076 0.5 84.3158C0.5 84.324 0.5 84.3322 0.5 84.3404C0.5 84.3486 0.5 84.3568 0.5 84.365C0.5 84.3732 0.5 84.3815 0.5 84.3897C0.5 84.3979 0.5 84.4061 0.5 84.4143C0.5 84.4225 0.5 84.4307 0.5 84.439C0.5 84.4472 0.5 84.4554 0.5 84.4636C0.5 84.4718 0.5 84.4801 0.5 84.4883C0.5 84.4965 0.5 84.5048 0.5 84.513C0.5 84.5212 0.5 84.5294 0.5 84.5377C0.5 84.5459 0.5 84.5541 0.5 84.5624C0.5 84.5706 0.5 84.5788 0.5 84.5871C0.5 84.5953 0.5 84.6036 0.5 84.6118C0.5 84.6201 0.5 84.6283 0.5 84.6365C0.5 84.6448 0.5 84.653 0.5 84.6613C0.5 84.6695 0.5 84.6778 0.5 84.686C0.5 84.6943 0.5 84.7025 0.5 84.7108C0.5 84.7191 0.5 84.7273 0.5 84.7356C0.5 84.7438 0.5 84.7521 0.5 84.7604C0.5 84.7686 0.5 84.7769 0.5 84.7851C0.5 84.7934 0.5 84.8017 0.5 84.8099C0.5 84.8182 0.5 84.8265 0.5 84.8348C0.5 84.843 0.5 84.8513 0.5 84.8596C0.5 84.8678 0.5 84.8761 0.5 84.8844C0.5 84.8927 0.5 84.901 0.5 84.9092C0.5 84.9175 0.5 84.9258 0.5 84.9341C0.5 84.9424 0.5 84.9507 0.5 84.959C0.5 84.9672 0.5 84.9755 0.5 84.9838C0.5 84.9921 0.5 85.0004 0.5 85.0087C0.5 85.017 0.5 85.0253 0.5 85.0336C0.5 85.0419 0.5 85.0502 0.5 85.0585C0.5 85.0668 0.5 85.0751 0.5 85.0834C0.5 85.0917 0.5 85.1 0.5 85.1083C0.5 85.1166 0.5 85.1249 0.5 85.1332C0.5 85.1415 0.5 85.1499 0.5 85.1582C0.5 85.1665 0.5 85.1748 0.5 85.1831C0.5 85.1914 0.5 85.1998 0.5 85.2081C0.5 85.2164 0.5 85.2247 0.5 85.233C0.5 85.2414 0.5 85.2497 0.5 85.258C0.5 85.2663 0.5 85.2747 0.5 85.283C0.5 85.2913 0.5 85.2997 0.5 85.308C0.5 85.3163 0.5 85.3247 0.5 85.333C0.5 85.3413 0.5 85.3497 0.5 85.358C0.5 85.3664 0.5 85.3747 0.5 85.383C0.5 85.3914 0.5 85.3997 0.5 85.4081C0.5 85.4164 0.5 85.4248 0.5 85.4331C0.5 85.4415 0.5 85.4498 0.5 85.4582C0.5 85.4665 0.5 85.4749 0.5 85.4832C0.5 85.4916 0.5 85.4999 0.5 85.5083C0.5 85.5167 0.5 85.525 0.5 85.5334C0.5 85.5418 0.5 85.5501 0.5 85.5585C0.5 85.5668 0.5 85.5752 0.5 85.5836C0.5 85.5919 0.5 85.6003 0.5 85.6087C0.5 85.6171 0.5 85.6254 0.5 85.6338C0.5 85.6422 0.5 85.6506 0.5 85.6589C0.5 85.6673 0.5 85.6757 0.5 85.6841C0.5 85.6925 0.5 85.7008 0.5 85.7092C0.5 85.7176 0.5 85.726 0.5 85.7344C0.5 85.7428 0.5 85.7512 0.5 85.7596C0.5 85.7679 0.5 85.7763 0.5 85.7847C0.5 85.7931 0.5 85.8015 0.5 85.8099C0.5 85.8183 0.5 85.8267 0.5 85.8351C0.5 85.8435 0.5 85.8519 0.5 85.8603C0.5 85.8687 0.5 85.8771 0.5 85.8855C0.5 85.8939 0.5 85.9023 0.5 85.9108C0.5 85.9192 0.5 85.9276 0.5 85.936C0.5 85.9444 0.5 85.9528 0.5 85.9612C0.5 85.9696 0.5 85.9781 0.5 85.9865C0.5 85.9949 0.5 86.0033 0.5 86.0117C0.5 86.0202 0.5 86.0286 0.5 86.037C0.5 86.0454 0.5 86.0539 0.5 86.0623C0.5 86.0707 0.5 86.0791 0.5 86.0876C0.5 86.096 0.5 86.1044 0.5 86.1129C0.5 86.1213 0.5 86.1297 0.5 86.1382C0.5 86.1466 0.5 86.1551 0.5 86.1635C0.5 86.1719 0.5 86.1804 0.5 86.1888C0.5 86.1973 0.5 86.2057 0.5 86.2142C0.5 86.2226 0.5 86.2311 0.5 86.2395C0.5 86.248 0.5 86.2564 0.5 86.2649C0.5 86.2733 0.5 86.2818 0.5 86.2902C0.5 86.2987 0.5 86.3071 0.5 86.3156C0.5 86.3241 0.5 86.3325 0.5 86.341C0.5 86.3494 0.5 86.3579 0.5 86.3664C0.5 86.3748 0.5 86.3833 0.5 86.3918C0.5 86.4002 0.5 86.4087 0.5 86.4172C0.5 86.4257 0.5 86.4341 0.5 86.4426C0.5 86.4511 0.5 86.4596 0.5 86.468C0.5 86.4765 0.5 86.485 0.5 86.4935C0.5 86.502 0.5 86.5104 0.5 86.5189C0.5 86.5274 0.5 86.5359 0.5 86.5444C0.5 86.5529 0.5 86.5613 0.5 86.5698C0.5 86.5783 0.5 86.5868 0.5 86.5953C0.5 86.6038 0.5 86.6123 0.5 86.6208C0.5 86.6293 0.5 86.6378 0.5 86.6463C0.5 86.6548 0.5 86.6633 0.5 86.6718C0.5 86.6803 0.5 86.6888 0.5 86.6973C0.5 86.7058 0.5 86.7143 0.5 86.7228C0.5 86.7313 0.5 86.7398 0.5 86.7484C0.5 86.7569 0.5 86.7654 0.5 86.7739C0.5 86.7824 0.5 86.7909 0.5 86.7994C0.5 86.808 0.5 86.8165 0.5 86.825C0.5 86.8335 0.5 86.842 0.5 86.8506C0.5 86.8591 0.5 86.8676 0.5 86.8761C0.5 86.8847 0.5 86.8932 0.5 86.9017C0.5 86.9103 0.5 86.9188 0.5 86.9273C0.5 86.9359 0.5 86.9444 0.5 86.9529C0.5 86.9615 0.5 86.97 0.5 86.9785C0.5 86.9871 0.5 86.9956 0.5 87.0042C0.5 87.0127 0.5 87.0212 0.5 87.0298C0.5 87.0383 0.5 87.0469 0.5 87.0554C0.5 87.064 0.5 87.0725 0.5 87.0811C0.5 87.0896 0.5 87.0982 0.5 87.1067C0.5 87.1153 0.5 87.1238 0.5 87.1324C0.5 87.1409 0.5 87.1495 0.5 87.1581C0.5 87.1666 0.5 87.1752 0.5 87.1837C0.5 87.1923 0.5 87.2009 0.5 87.2094C0.5 87.218 0.5 87.2266 0.5 87.2351C0.5 87.2437 0.5 87.2523 0.5 87.2608C0.5 87.2694 0.5 87.278 0.5 87.2866C0.5 87.2951 0.5 87.3037 0.5 87.3123C0.5 87.3209 0.5 87.3295 0.5 87.338C0.5 87.3466 0.5 87.3552 0.5 87.3638C0.5 87.3724 0.5 87.3809 0.5 87.3895C0.5 87.3981 0.5 87.4067 0.5 87.4153C0.5 87.4239 0.5 87.4325 0.5 87.4411C0.5 87.4497 0.5 87.4583 0.5 87.4669C0.5 87.4754 0.5 87.484 0.5 87.4926C0.5 87.5012 0.5 87.5098 0.5 87.5184C0.5 87.527 0.5 87.5356 0.5 87.5442C0.5 87.5528 0.5 87.5615 0.5 87.5701C0.5 87.5787 0.5 87.5873 0.5 87.5959C0.5 87.6045 0.5 87.6131 0.5 87.6217C0.5 87.6303 0.5 87.6389 0.5 87.6476C0.5 87.6562 0.5 87.6648 0.5 87.6734C0.5 87.682 0.5 87.6907 0.5 87.6993C0.5 87.7079 0.5 87.7165 0.5 87.7251C0.5 87.7338 0.5 87.7424 0.5 87.751C0.5 87.7597 0.5 87.7683 0.5 87.7769C0.5 87.7855 0.5 87.7942 0.5 87.8028C0.5 87.8114 0.5 87.8201 0.5 87.8287C0.5 87.8373 0.5 87.846 0.5 87.8546C0.5 87.8633 0.5 87.8719 0.5 87.8805C0.5 87.8892 0.5 87.8978 0.5 87.9065C0.5 87.9151 0.5 87.9238 0.5 87.9324C0.5 87.9411 0.5 87.9497 0.5 87.9584C0.5 87.967 0.5 87.9757 0.5 87.9843C0.5 87.993 0.5 88.0016 0.5 88.0103C0.5 88.0189 0.5 88.0276 0.5 88.0363C0.5 88.0449 0.5 88.0536 0.5 88.0622C0.5 88.0709 0.5 88.0796 0.5 88.0882C0.5 88.0969 0.5 88.1056 0.5 88.1142C0.5 88.1229 0.5 88.1316 0.5 88.1402C0.5 88.1489 0.5 88.1576 0.5 88.1663C0.5 88.1749 0.5 88.1836 0.5 88.1923C0.5 88.201 0.5 88.2096 0.5 88.2183C0.5 88.227 0.5 88.2357 0.5 88.2444C0.5 88.2531 0.5 88.2617 0.5 88.2704C0.5 88.2791 0.5 88.2878 0.5 88.2965C0.5 88.3052 0.5 88.3139 0.5 88.3225C0.5 88.3312 0.5 88.3399 0.5 88.3486C0.5 88.3573 0.5 88.366 0.5 88.3747C0.5 88.3834 0.5 88.3921 0.5 88.4008C0.5 88.4095 0.5 88.4182 0.5 88.4269C0.5 88.4356 0.5 88.4443 0.5 88.453C0.5 88.4617 0.5 88.4704 0.5 88.4791C0.5 88.4878 0.5 88.4966 0.5 88.5053C0.5 88.514 0.5 88.5227 0.5 88.5314C0.5 88.5401 0.5 88.5488 0.5 88.5576C0.5 88.5663 0.5 88.575 0.5 88.5837C0.5 88.5924 0.5 88.6012 0.5 88.6099C0.5 88.6186 0.5 88.6273 0.5 88.636C0.5 88.6448 0.5 88.6535 0.5 88.6622C0.5 88.671 0.5 88.6797 0.5 88.6884C0.5 88.6971 0.5 88.7059 0.5 88.7146C0.5 88.7233 0.5 88.7321 0.5 88.7408C0.5 88.7495 0.5 88.7583 0.5 88.767C0.5 88.7758 0.5 88.7845 0.5 88.7932C0.5 88.802 0.5 88.8107 0.5 88.8195C0.5 88.8282 0.5 88.837 0.5 88.8457C0.5 88.8545 0.5 88.8632 0.5 88.872C0.5 88.8807 0.5 88.8895 0.5 88.8982C0.5 88.907 0.5 88.9157 0.5 88.9245C0.5 88.9332 0.5 88.942 0.5 88.9508C0.5 88.9595 0.5 88.9683 0.5 88.977C0.5 88.9858 0.5 88.9946 0.5 89.0033C0.5 89.0121 0.5 89.0209 0.5 89.0296C0.5 89.0384 0.5 89.0472 0.5 89.0559C0.5 89.0647 0.5 89.0735 0.5 89.0822C0.5 89.091 0.5 89.0998 0.5 89.1086C0.5 89.1173 0.5 89.1261 0.5 89.1349C0.5 89.1437 0.5 89.1525 0.5 89.1612C0.5 89.17 0.5 89.1788 0.5 89.1876C0.5 89.1964 0.5 89.2051 0.5 89.2139C0.5 89.2227 0.5 89.2315 0.5 89.2403C0.5 89.2491 0.5 89.2579 0.5 89.2667C0.5 89.2755 0.5 89.2843 0.5 89.2931C0.5 89.3018 0.5 89.3106 0.5 89.3194C0.5 89.3282 0.5 89.337 0.5 89.3458C0.5 89.3546 0.5 89.3634 0.5 89.3722C0.5 89.381 0.5 89.3898 0.5 89.3987C0.5 89.4075 0.5 89.4163 0.5 89.4251C0.5 89.4339 0.5 89.4427 0.5 89.4515C0.5 89.4603 0.5 89.4691 0.5 89.4779C0.5 89.4868 0.5 89.4956 0.5 89.5044C0.5 89.5132 0.5 89.522 0.5 89.5308C0.5 89.5397 0.5 89.5485 0.5 89.5573C0.5 89.5661 0.5 89.5749 0.5 89.5838C0.5 89.5926 0.5 89.6014 0.5 89.6103C0.5 89.6191 0.5 89.6279 0.5 89.6367C0.5 89.6456 0.5 89.6544 0.5 89.6632C0.5 89.6721 0.5 89.6809 0.5 89.6897C0.5 89.6986 0.5 89.7074 0.5 89.7162C0.5 89.7251 0.5 89.7339 0.5 89.7428C0.5 89.7516 0.5 89.7604 0.5 89.7693C0.5 89.7781 0.5 89.787 0.5 89.7958C0.5 89.8047 0.5 89.8135 0.5 89.8224C0.5 89.8312 0.5 89.8401 0.5 89.8489C0.5 89.8578 0.5 89.8666 0.5 89.8755C0.5 89.8843 0.5 89.8932 0.5 89.902C0.5 89.9109 0.5 89.9198 0.5 89.9286C0.5 89.9375 0.5 89.9463 0.5 89.9552C0.5 89.9641 0.5 89.9729 0.5 89.9818C0.5 89.9907 0.5 89.9995 0.5 90.0084C0.5 90.0173 0.5 90.0261 0.5 90.035C0.5 90.0439 0.5 90.0527 0.5 90.0616C0.5 90.0705 0.5 90.0794 0.5 90.0882C0.5 90.0971 0.5 90.106 0.5 90.1149C0.5 90.1237 0.5 90.1326 0.5 90.1415C0.5 90.1504 0.5 90.1593 0.5 90.1682C0.5 90.177 0.5 90.1859 0.5 90.1948C0.5 90.2037 0.5 90.2126 0.5 90.2215C0.5 90.2304 0.5 90.2393 0.5 90.2481C0.5 90.257 0.5 90.2659 0.5 90.2748C0.5 90.2837 0.5 90.2926 0.5 90.3015C0.5 90.3104 0.5 90.3193 0.5 90.3282C0.5 90.3371 0.5 90.346 0.5 90.3549C0.5 90.3638 0.5 90.3727 0.5 90.3816C0.5 90.3905 0.5 90.3994 0.5 90.4083C0.5 90.4172 0.5 90.4262 0.5 90.4351C0.5 90.444 0.5 90.4529 0.5 90.4618C0.5 90.4707 0.5 90.4796 0.5 90.4885C0.5 90.4975 0.5 90.5064 0.5 90.5153C0.5 90.5242 0.5 90.5331 0.5 90.542C0.5 90.551 0.5 90.5599 0.5 90.5688C0.5 90.5777 0.5 90.5867 0.5 90.5956C0.5 90.6045 0.5 90.6134 0.5 90.6224C0.5 90.6313 0.5 90.6402 0.5 90.6492C0.5 90.6581 0.5 90.667 0.5 90.6759C0.5 90.6849 0.5 90.6938 0.5 90.7028C0.5 90.7117 0.5 90.7206 0.5 90.7296C0.5 90.7385 0.5 90.7474 0.5 90.7564C0.5 90.7653 0.5 90.7743 0.5 90.7832C0.5 90.7922 0.5 90.8011 0.5 90.8101C0.5 90.819 0.5 90.8279 0.5 90.8369C0.5 90.8458 0.5 90.8548 0.5 90.8637C0.5 90.8727 0.5 90.8817 0.5 90.8906C0.5 90.8996 0.5 90.9085 0.5 90.9175C0.5 90.9264 0.5 90.9354 0.5 90.9443C0.5 90.9533 0.5 90.9623 0.5 90.9712C0.5 90.9802 0.5 90.9892 0.5 90.9981C0.5 91.0071 0.5 91.016 0.5 91.025C0.5 91.034 0.5 91.0429 0.5 91.0519C0.5 91.0609 0.5 91.0699 0.5 91.0788C0.5 91.0878 0.5 91.0968 0.5 91.1057C0.5 91.1147 0.5 91.1237 0.5 91.1327C0.5 91.1417 0.5 91.1506 0.5 91.1596C0.5 91.1686 0.5 91.1776 0.5 91.1866C0.5 91.1955 0.5 91.2045 0.5 91.2135C0.5 91.2225 0.5 91.2315 0.5 91.2405C0.5 91.2494 0.5 91.2584 0.5 91.2674C0.5 91.2764 0.5 91.2854 0.5 91.2944C0.5 91.3034 0.5 91.3124 0.5 91.3214C0.5 91.3304 0.5 91.3394 0.5 91.3484C0.5 91.3574 0.5 91.3664 0.5 91.3754C0.5 91.3844 0.5 91.3934 0.5 91.4024C0.5 91.4114 0.5 91.4204 0.5 91.4294C0.5 91.4384 0.5 91.4474 0.5 91.4564C0.5 91.4654 0.5 91.4744 0.5 91.4834C0.5 91.4924 0.5 91.5014 0.5 91.5105C0.5 91.5195 0.5 91.5285 0.5 91.5375C0.5 91.5465 0.5 91.5555 0.5 91.5645C0.5 91.5736 0.5 91.5826 0.5 91.5916C0.5 91.6006 0.5 91.6096 0.5 91.6187C0.5 91.6277 0.5 91.6367 0.5 91.6457C0.5 91.6548 0.5 91.6638 0.5 91.6728C0.5 91.6818 0.5 91.6909 0.5 91.6999C0.5 91.7089 0.5 91.718 0.5 91.727C0.5 91.736 0.5 91.7451 0.5 91.7541C0.5 91.7631 0.5 91.7722 0.5 91.7812C0.5 91.7902 0.5 91.7993 0.5 91.8083C0.5 91.8174 0.5 91.8264 0.5 91.8354C0.5 91.8445 0.5 91.8535 0.5 91.8626C0.5 91.8716 0.5 91.8807 0.5 91.8897C0.5 91.8988 0.5 91.9078 0.5 91.9168C0.5 91.9259 0.5 91.9349 0.5 91.944C0.5 91.953 0.5 91.9621 0.5 91.9712C0.5 91.9802 0.5 91.9893 0.5 91.9983C0.5 92.0074 0.5 92.0164 0.5 92.0255C0.5 92.0346 0.5 92.0436 0.5 92.0527C0.5 92.0617 0.5 92.0708 0.5 92.0799C0.5 92.0889 0.5 92.098 0.5 92.1071C0.5 92.1161 0.5 92.1252 0.5 92.1343C0.5 92.1433 0.5 92.1524 0.5 92.1615C0.5 92.1705 0.5 92.1796 0.5 92.1887C0.5 92.1978 0.5 92.2068 0.5 92.2159C0.5 92.225 0.5 92.2341 0.5 92.2431C0.5 92.2522 0.5 92.2613 0.5 92.2704C0.5 92.2795 0.5 92.2886 0.5 92.2976C0.5 92.3067 0.5 92.3158 0.5 92.3249C0.5 92.334 0.5 92.3431 0.5 92.3521C0.5 92.3612 0.5 92.3703 0.5 92.3794C0.5 92.3885 0.5 92.3976 0.5 92.4067C0.5 92.4158 0.5 92.4249 0.5 92.434C0.5 92.4431 0.5 92.4522 0.5 92.4613C0.5 92.4704 0.5 92.4795 0.5 92.4886C0.5 92.4977 0.5 92.5068 0.5 92.5159C0.5 92.525 0.5 92.5341 0.5 92.5432C0.5 92.5523 0.5 92.5614 0.5 92.5705C0.5 92.5796 0.5 92.5887 0.5 92.5978C0.5 92.6069 0.5 92.6161 0.5 92.6252C0.5 92.6343 0.5 92.6434 0.5 92.6525C0.5 92.6616 0.5 92.6707 0.5 92.6798C0.5 92.689 0.5 92.6981 0.5 92.7072C0.5 92.7163 0.5 92.7254 0.5 92.7346C0.5 92.7437 0.5 92.7528 0.5 92.7619C0.5 92.7711 0.5 92.7802 0.5 92.7893C0.5 92.7984 0.5 92.8076 0.5 92.8167C0.5 92.8258 0.5 92.835 0.5 92.8441C0.5 92.8532 0.5 92.8623 0.5 92.8715C0.5 92.8806 0.5 92.8897 0.5 92.8989C0.5 92.908 0.5 92.9172 0.5 92.9263C0.5 92.9354 0.5 92.9446 0.5 92.9537C0.5 92.9629 0.5 92.972 0.5 92.9811C0.5 92.9903 0.5 92.9994 0.5 93.0086C0.5 93.0177 0.5 93.0269 0.5 93.036C0.5 93.0452 0.5 93.0543 0.5 93.0635C0.5 93.0726 0.5 93.0818 0.5 93.0909C0.5 93.1001 0.5 93.1092 0.5 93.1184C0.5 93.1275 0.5 93.1367 0.5 93.1458C0.5 93.155 0.5 93.1641 0.5 93.1733C0.5 93.1825 0.5 93.1916 0.5 93.2008C0.5 93.2099 0.5 93.2191 0.5 93.2283C0.5 93.2374 0.5 93.2466 0.5 93.2558C0.5 93.2649 0.5 93.2741 0.5 93.2833C0.5 93.2924 0.5 93.3016 0.5 93.3108C0.5 93.3199 0.5 93.3291 0.5 93.3383C0.5 93.3475 0.5 93.3566 0.5 93.3658C0.5 93.375 0.5 93.3842 0.5 93.3933C0.5 93.4025 0.5 93.4117 0.5 93.4209C0.5 93.4301 0.5 93.4392 0.5 93.4484C0.5 93.4576 0.5 93.4668 0.5 93.476C0.5 93.4852 0.5 93.4943 0.5 93.5035C0.5 93.5127 0.5 93.5219 0.5 93.5311C0.5 93.5403 0.5 93.5495 0.5 93.5587C0.5 93.5679 0.5 93.577 0.5 93.5862C0.5 93.5954 0.5 93.6046 0.5 93.6138C0.5 93.623 0.5 93.6322 0.5 93.6414C0.5 93.6506 0.5 93.6598 0.5 93.669C0.5 93.6782 0.5 93.6874 0.5 93.6966C0.5 93.7058 0.5 93.715 0.5 93.7242C0.5 93.7334 0.5 93.7426 0.5 93.7518C0.5 93.7611 0.5 93.7703 0.5 93.7795C0.5 93.7887 0.5 93.7979 0.5 93.8071C0.5 93.8163 0.5 93.8255 0.5 93.8347C0.5 93.844 0.5 93.8532 0.5 93.8624C0.5 93.8716 0.5 93.8808 0.5 93.89C0.5 93.8993 0.5 93.9085 0.5 93.9177C0.5 93.9269 0.5 93.9361 0.5 93.9454C0.5 93.9546 0.5 93.9638 0.5 93.973C0.5 93.9823 0.5 93.9915 0.5 94.0007C0.5 94.0099 0.5 94.0192 0.5 94.0284C0.5 94.0376 0.5 94.0469 0.5 94.0561C0.5 94.0653 0.5 94.0746 0.5 94.0838C0.5 94.093 0.5 94.1023 0.5 94.1115C0.5 94.1207 0.5 94.13 0.5 94.1392C0.5 94.1484 0.5 94.1577 0.5 94.1669C0.5 94.1762 0.5 94.1854 0.5 94.1946C0.5 94.2039 0.5 94.2131 0.5 94.2224C0.5 94.2316 0.5 94.2409 0.5 94.2501C0.5 94.2594 0.5 94.2686 0.5 94.2779C0.5 94.2871 0.5 94.2964 0.5 94.3056C0.5 94.3149 0.5 94.3241 0.5 94.3334C0.5 94.3426 0.5 94.3519 0.5 94.3611C0.5 94.3704 0.5 94.3796 0.5 94.3889C0.5 94.3982 0.5 94.4074 0.5 94.4167C0.5 94.4259 0.5 94.4352 0.5 94.4445C0.5 94.4537 0.5 94.463 0.5 94.4723C0.5 94.4815 0.5 94.4908 0.5 94.5001C0.5 94.5093 0.5 94.5186 0.5 94.5279C0.5 94.5371 0.5 94.5464 0.5 94.5557C0.5 94.5649 0.5 94.5742 0.5 94.5835C0.5 94.5928 0.5 94.602 0.5 94.6113C0.5 94.6206 0.5 94.6299 0.5 94.6391C0.5 94.6484 0.5 94.6577 0.5 94.667C0.5 94.6763 0.5 94.6855 0.5 94.6948C0.5 94.7041 0.5 94.7134 0.5 94.7227C0.5 94.7319 0.5 94.7412 0.5 94.7505C0.5 94.7598 0.5 94.7691 0.5 94.7784C0.5 94.7877 0.5 94.797 0.5 94.8063C0.5 94.8155 0.5 94.8248 0.5 94.8341C0.5 94.8434 0.5 94.8527 0.5 94.862C0.5 94.8713 0.5 94.8806 0.5 94.8899C0.5 94.8992 0.5 94.9085 0.5 94.9178C0.5 94.9271 0.5 94.9364 0.5 94.9457C0.5 94.955 0.5 94.9643 0.5 94.9736C0.5 94.9829 0.5 94.9922 0.5 95.0015C0.5 95.0108 0.5 95.0201 0.5 95.0294C0.5 95.0387 0.5 95.048 0.5 95.0574C0.5 95.0667 0.5 95.076 0.5 95.0853C0.5 95.0946 0.5 95.1039 0.5 95.1132C0.5 95.1225 0.5 95.1319 0.5 95.1412C0.5 95.1505 0.5 95.1598 0.5 95.1691C0.5 95.1784 0.5 95.1878 0.5 95.1971C0.5 95.2064 0.5 95.2157 0.5 95.225C0.5 95.2344 0.5 95.2437 0.5 95.253C0.5 95.2623 0.5 95.2717 0.5 95.281C0.5 95.2903 0.5 95.2996 0.5 95.309C0.5 95.3183 0.5 95.3276 0.5 95.337C0.5 95.3463 0.5 95.3556 0.5 95.365C0.5 95.3743 0.5 95.3836 0.5 95.393C0.5 95.4023 0.5 95.4116 0.5 95.421C0.5 95.4303 0.5 95.4396 0.5 95.449C0.5 95.4583 0.5 95.4677 0.5 95.477C0.5 95.4863 0.5 95.4957 0.5 95.505C0.5 95.5144 0.5 95.5237 0.5 95.5331C0.5 95.5424 0.5 95.5517 0.5 95.5611C0.5 95.5704 0.5 95.5798 0.5 95.5891C0.5 95.5985 0.5 95.6078 0.5 95.6172C0.5 95.6265 0.5 95.6359 0.5 95.6452C0.5 95.6546 0.5 95.6639 0.5 95.6733C0.5 95.6827 0.5 95.692 0.5 95.7014C0.5 95.7107 0.5 95.7201 0.5 95.7294C0.5 95.7388 0.5 95.7482 0.5 95.7575C0.5 95.7669 0.5 95.7763 0.5 95.7856C0.5 95.795 0.5 95.8043 0.5 95.8137C0.5 95.8231 0.5 95.8324 0.5 95.8418C0.5 95.8512 0.5 95.8605 0.5 95.8699C0.5 95.8793 0.5 95.8887 0.5 95.898C0.5 95.9074 0.5 95.9168 0.5 95.9261C0.5 95.9355 0.5 95.9449 0.5 95.9543C0.5 95.9636 0.5 95.973 0.5 95.9824C0.5 95.9918 0.5 96.0012 0.5 96.0105C0.5 96.0199 0.5 96.0293 0.5 96.0387C0.5 96.0481 0.5 96.0574 0.5 96.0668C0.5 96.0762 0.5 96.0856 0.5 96.095C0.5 96.1044 0.5 96.1138 0.5 96.1231C0.5 96.1325 0.5 96.1419 0.5 96.1513C0.5 96.1607 0.5 96.1701 0.5 96.1795C0.5 96.1889 0.5 96.1983 0.5 96.2077C0.5 96.217 0.5 96.2264 0.5 96.2358C0.5 96.2452 0.5 96.2546 0.5 96.264C0.5 96.2734 0.5 96.2828 0.5 96.2922C0.5 96.3016 0.5 96.311 0.5 96.3204C0.5 96.3298 0.5 96.3392 0.5 96.3486C0.5 96.358 0.5 96.3674 0.5 96.3769C0.5 96.3863 0.5 96.3957 0.5 96.4051C0.5 96.4145 0.5 96.4239 0.5 96.4333C0.5 96.4427 0.5 96.4521 0.5 96.4615C0.5 96.4709 0.5 96.4804 0.5 96.4898C0.5 96.4992 0.5 96.5086 0.5 96.518C0.5 96.5274 0.5 96.5368 0.5 96.5463C0.5 96.5557 0.5 96.5651 0.5 96.5745C0.5 96.5839 0.5 96.5934 0.5 96.6028C0.5 96.6122 0.5 96.6216 0.5 96.631C0.5 96.6405 0.5 96.6499 0.5 96.6593C0.5 96.6687 0.5 96.6782 0.5 96.6876C0.5 96.697 0.5 96.7064 0.5 96.7159C0.5 96.7253 0.5 96.7347 0.5 96.7442C0.5 96.7536 0.5 96.763 0.5 96.7725C0.5 96.7819 0.5 96.7913 0.5 96.8008C0.5 96.8102 0.5 96.8196 0.5 96.8291C0.5 96.8385 0.5 96.8479 0.5 96.8574C0.5 96.8668 0.5 96.8763 0.5 96.8857C0.5 96.8951 0.5 96.9046 0.5 96.914C0.5 96.9235 0.5 96.9329 0.5 96.9424C0.5 96.9518 0.5 96.9613 0.5 96.9707C0.5 96.9801 0.5 96.9896 0.5 96.999C0.5 97.0085 0.5 97.0179 0.5 97.0274C0.5 97.0368 0.5 97.0463 0.5 97.0557C0.5 97.0652 0.5 97.0746 0.5 97.0841C0.5 97.0936 0.5 97.103 0.5 97.1125C0.5 97.1219 0.5 97.1314 0.5 97.1408C0.5 97.1503 0.5 97.1597 0.5 97.1692C0.5 97.1787 0.5 97.1881 0.5 97.1976C0.5 97.207 0.5 97.2165 0.5 97.226C0.5 97.2354 0.5 97.2449 0.5 97.2544C0.5 97.2638 0.5 97.2733 0.5 97.2828C0.5 97.2922 0.5 97.3017 0.5 97.3112C0.5 97.3206 0.5 97.3301 0.5 97.3396C0.5 97.3491 0.5 97.3585 0.5 97.368C0.5 97.3775 0.5 97.3869 0.5 97.3964C0.5 97.4059 0.5 97.4154 0.5 97.4248C0.5 97.4343 0.5 97.4438 0.5 97.4533C0.5 97.4628 0.5 97.4722 0.5 97.4817C0.5 97.4912 0.5 97.5007 0.5 97.5102C0.5 97.5196 0.5 97.5291 0.5 97.5386C0.5 97.5481 0.5 97.5576 0.5 97.5671C0.5 97.5765 0.5 97.586 0.5 97.5955C0.5 97.605 0.5 97.6145 0.5 97.624C0.5 97.6335 0.5 97.643 0.5 97.6525C0.5 97.6619 0.5 97.6714 0.5 97.6809C0.5 97.6904 0.5 97.6999 0.5 97.7094C0.5 97.7189 0.5 97.7284 0.5 97.7379C0.5 97.7474 0.5 97.7569 0.5 97.7664C0.5 97.7759 0.5 97.7854 0.5 97.7949C0.5 97.8044 0.5 97.8139 0.5 97.8234C0.5 97.8329 0.5 97.8424 0.5 97.8519C0.5 97.8614 0.5 97.8709 0.5 97.8804C0.5 97.8899 0.5 97.8994 0.5 97.9089C0.5 97.9184 0.5 97.928 0.5 97.9375H4.5ZM23.0714 65.6741H50.5V61.6741H23.0714V65.6741ZM69.0714 84.242C69.0714 84.2502 69.0714 84.2584 69.0714 84.2666C69.0714 84.2748 69.0714 84.283 69.0714 84.2912C69.0714 84.2994 69.0714 84.3076 69.0714 84.3158C69.0714 84.324 69.0714 84.3322 69.0714 84.3404C69.0714 84.3486 69.0714 84.3568 69.0714 84.365C69.0714 84.3732 69.0714 84.3815 69.0714 84.3897C69.0714 84.3979 69.0714 84.4061 69.0714 84.4143C69.0714 84.4225 69.0714 84.4307 69.0714 84.439C69.0714 84.4472 69.0714 84.4554 69.0714 84.4636C69.0714 84.4718 69.0714 84.4801 69.0714 84.4883C69.0714 84.4965 69.0714 84.5048 69.0714 84.513C69.0714 84.5212 69.0714 84.5294 69.0714 84.5377C69.0714 84.5459 69.0714 84.5541 69.0714 84.5624C69.0714 84.5706 69.0714 84.5788 69.0714 84.5871C69.0714 84.5953 69.0714 84.6036 69.0714 84.6118C69.0714 84.6201 69.0714 84.6283 69.0714 84.6365C69.0714 84.6448 69.0714 84.653 69.0714 84.6613C69.0714 84.6695 69.0714 84.6778 69.0714 84.686C69.0714 84.6943 69.0714 84.7025 69.0714 84.7108C69.0714 84.7191 69.0714 84.7273 69.0714 84.7356C69.0714 84.7438 69.0714 84.7521 69.0714 84.7604C69.0714 84.7686 69.0714 84.7769 69.0714 84.7851C69.0714 84.7934 69.0714 84.8017 69.0714 84.8099C69.0714 84.8182 69.0714 84.8265 69.0714 84.8348C69.0714 84.843 69.0714 84.8513 69.0714 84.8596C69.0714 84.8678 69.0714 84.8761 69.0714 84.8844C69.0714 84.8927 69.0714 84.901 69.0714 84.9092C69.0714 84.9175 69.0714 84.9258 69.0714 84.9341C69.0714 84.9424 69.0714 84.9507 69.0714 84.959C69.0714 84.9672 69.0714 84.9755 69.0714 84.9838C69.0714 84.9921 69.0714 85.0004 69.0714 85.0087C69.0714 85.017 69.0714 85.0253 69.0714 85.0336C69.0714 85.0419 69.0714 85.0502 69.0714 85.0585C69.0714 85.0668 69.0714 85.0751 69.0714 85.0834C69.0714 85.0917 69.0714 85.1 69.0714 85.1083C69.0714 85.1166 69.0714 85.1249 69.0714 85.1332C69.0714 85.1415 69.0714 85.1499 69.0714 85.1582C69.0714 85.1665 69.0714 85.1748 69.0714 85.1831C69.0714 85.1914 69.0714 85.1998 69.0714 85.2081C69.0714 85.2164 69.0714 85.2247 69.0714 85.233C69.0714 85.2414 69.0714 85.2497 69.0714 85.258C69.0714 85.2663 69.0714 85.2747 69.0714 85.283C69.0714 85.2913 69.0714 85.2997 69.0714 85.308C69.0714 85.3163 69.0714 85.3247 69.0714 85.333C69.0714 85.3413 69.0714 85.3497 69.0714 85.358C69.0714 85.3664 69.0714 85.3747 69.0714 85.383C69.0714 85.3914 69.0714 85.3997 69.0714 85.4081C69.0714 85.4164 69.0714 85.4248 69.0714 85.4331C69.0714 85.4415 69.0714 85.4498 69.0714 85.4582C69.0714 85.4665 69.0714 85.4749 69.0714 85.4832C69.0714 85.4916 69.0714 85.4999 69.0714 85.5083C69.0714 85.5167 69.0714 85.525 69.0714 85.5334C69.0714 85.5417 69.0714 85.5501 69.0714 85.5585C69.0714 85.5668 69.0714 85.5752 69.0714 85.5836C69.0714 85.5919 69.0714 85.6003 69.0714 85.6087C69.0714 85.6171 69.0714 85.6254 69.0714 85.6338C69.0714 85.6422 69.0714 85.6506 69.0714 85.6589C69.0714 85.6673 69.0714 85.6757 69.0714 85.6841C69.0714 85.6925 69.0714 85.7008 69.0714 85.7092C69.0714 85.7176 69.0714 85.726 69.0714 85.7344C69.0714 85.7428 69.0714 85.7512 69.0714 85.7596C69.0714 85.7679 69.0714 85.7763 69.0714 85.7847C69.0714 85.7931 69.0714 85.8015 69.0714 85.8099C69.0714 85.8183 69.0714 85.8267 69.0714 85.8351C69.0714 85.8435 69.0714 85.8519 69.0714 85.8603C69.0714 85.8687 69.0714 85.8771 69.0714 85.8855C69.0714 85.8939 69.0714 85.9023 69.0714 85.9108C69.0714 85.9192 69.0714 85.9276 69.0714 85.936C69.0714 85.9444 69.0714 85.9528 69.0714 85.9612C69.0714 85.9696 69.0714 85.9781 69.0714 85.9865C69.0714 85.9949 69.0714 86.0033 69.0714 86.0117C69.0714 86.0202 69.0714 86.0286 69.0714 86.037C69.0714 86.0454 69.0714 86.0539 69.0714 86.0623C69.0714 86.0707 69.0714 86.0791 69.0714 86.0876C69.0714 86.096 69.0714 86.1044 69.0714 86.1129C69.0714 86.1213 69.0714 86.1297 69.0714 86.1382C69.0714 86.1466 69.0714 86.1551 69.0714 86.1635C69.0714 86.1719 69.0714 86.1804 69.0714 86.1888C69.0714 86.1973 69.0714 86.2057 69.0714 86.2142C69.0714 86.2226 69.0714 86.2311 69.0714 86.2395C69.0714 86.248 69.0714 86.2564 69.0714 86.2649C69.0714 86.2733 69.0714 86.2818 69.0714 86.2902C69.0714 86.2987 69.0714 86.3071 69.0714 86.3156C69.0714 86.3241 69.0714 86.3325 69.0714 86.341C69.0714 86.3494 69.0714 86.3579 69.0714 86.3664C69.0714 86.3748 69.0714 86.3833 69.0714 86.3918C69.0714 86.4002 69.0714 86.4087 69.0714 86.4172C69.0714 86.4257 69.0714 86.4341 69.0714 86.4426C69.0714 86.4511 69.0714 86.4596 69.0714 86.468C69.0714 86.4765 69.0714 86.485 69.0714 86.4935C69.0714 86.502 69.0714 86.5104 69.0714 86.5189C69.0714 86.5274 69.0714 86.5359 69.0714 86.5444C69.0714 86.5529 69.0714 86.5613 69.0714 86.5698C69.0714 86.5783 69.0714 86.5868 69.0714 86.5953C69.0714 86.6038 69.0714 86.6123 69.0714 86.6208C69.0714 86.6293 69.0714 86.6378 69.0714 86.6463C69.0714 86.6548 69.0714 86.6633 69.0714 86.6718C69.0714 86.6803 69.0714 86.6888 69.0714 86.6973C69.0714 86.7058 69.0714 86.7143 69.0714 86.7228C69.0714 86.7313 69.0714 86.7398 69.0714 86.7484C69.0714 86.7569 69.0714 86.7654 69.0714 86.7739C69.0714 86.7824 69.0714 86.7909 69.0714 86.7994C69.0714 86.808 69.0714 86.8165 69.0714 86.825C69.0714 86.8335 69.0714 86.842 69.0714 86.8506C69.0714 86.8591 69.0714 86.8676 69.0714 86.8761C69.0714 86.8847 69.0714 86.8932 69.0714 86.9017C69.0714 86.9103 69.0714 86.9188 69.0714 86.9273C69.0714 86.9359 69.0714 86.9444 69.0714 86.9529C69.0714 86.9615 69.0714 86.97 69.0714 86.9785C69.0714 86.9871 69.0714 86.9956 69.0714 87.0042C69.0714 87.0127 69.0714 87.0212 69.0714 87.0298C69.0714 87.0383 69.0714 87.0469 69.0714 87.0554C69.0714 87.064 69.0714 87.0725 69.0714 87.0811C69.0714 87.0896 69.0714 87.0982 69.0714 87.1067C69.0714 87.1153 69.0714 87.1238 69.0714 87.1324C69.0714 87.1409 69.0714 87.1495 69.0714 87.1581C69.0714 87.1666 69.0714 87.1752 69.0714 87.1837C69.0714 87.1923 69.0714 87.2009 69.0714 87.2094C69.0714 87.218 69.0714 87.2266 69.0714 87.2351C69.0714 87.2437 69.0714 87.2523 69.0714 87.2608C69.0714 87.2694 69.0714 87.278 69.0714 87.2866C69.0714 87.2951 69.0714 87.3037 69.0714 87.3123C69.0714 87.3209 69.0714 87.3295 69.0714 87.338C69.0714 87.3466 69.0714 87.3552 69.0714 87.3638C69.0714 87.3724 69.0714 87.3809 69.0714 87.3895C69.0714 87.3981 69.0714 87.4067 69.0714 87.4153C69.0714 87.4239 69.0714 87.4325 69.0714 87.4411C69.0714 87.4497 69.0714 87.4583 69.0714 87.4669C69.0714 87.4754 69.0714 87.484 69.0714 87.4926C69.0714 87.5012 69.0714 87.5098 69.0714 87.5184C69.0714 87.527 69.0714 87.5356 69.0714 87.5442C69.0714 87.5528 69.0714 87.5615 69.0714 87.5701C69.0714 87.5787 69.0714 87.5873 69.0714 87.5959C69.0714 87.6045 69.0714 87.6131 69.0714 87.6217C69.0714 87.6303 69.0714 87.6389 69.0714 87.6476C69.0714 87.6562 69.0714 87.6648 69.0714 87.6734C69.0714 87.682 69.0714 87.6907 69.0714 87.6993C69.0714 87.7079 69.0714 87.7165 69.0714 87.7251C69.0714 87.7338 69.0714 87.7424 69.0714 87.751C69.0714 87.7597 69.0714 87.7683 69.0714 87.7769C69.0714 87.7855 69.0714 87.7942 69.0714 87.8028C69.0714 87.8114 69.0714 87.8201 69.0714 87.8287C69.0714 87.8373 69.0714 87.846 69.0714 87.8546C69.0714 87.8633 69.0714 87.8719 69.0714 87.8805C69.0714 87.8892 69.0714 87.8978 69.0714 87.9065C69.0714 87.9151 69.0714 87.9238 69.0714 87.9324C69.0714 87.9411 69.0714 87.9497 69.0714 87.9584C69.0714 87.967 69.0714 87.9757 69.0714 87.9843C69.0714 87.993 69.0714 88.0016 69.0714 88.0103C69.0714 88.0189 69.0714 88.0276 69.0714 88.0363C69.0714 88.0449 69.0714 88.0536 69.0714 88.0622C69.0714 88.0709 69.0714 88.0796 69.0714 88.0882C69.0714 88.0969 69.0714 88.1056 69.0714 88.1142C69.0714 88.1229 69.0714 88.1316 69.0714 88.1402C69.0714 88.1489 69.0714 88.1576 69.0714 88.1663C69.0714 88.1749 69.0714 88.1836 69.0714 88.1923C69.0714 88.201 69.0714 88.2096 69.0714 88.2183C69.0714 88.227 69.0714 88.2357 69.0714 88.2444C69.0714 88.2531 69.0714 88.2617 69.0714 88.2704C69.0714 88.2791 69.0714 88.2878 69.0714 88.2965C69.0714 88.3052 69.0714 88.3139 69.0714 88.3225C69.0714 88.3312 69.0714 88.3399 69.0714 88.3486C69.0714 88.3573 69.0714 88.366 69.0714 88.3747C69.0714 88.3834 69.0714 88.3921 69.0714 88.4008C69.0714 88.4095 69.0714 88.4182 69.0714 88.4269C69.0714 88.4356 69.0714 88.4443 69.0714 88.453C69.0714 88.4617 69.0714 88.4704 69.0714 88.4791C69.0714 88.4878 69.0714 88.4966 69.0714 88.5053C69.0714 88.514 69.0714 88.5227 69.0714 88.5314C69.0714 88.5401 69.0714 88.5488 69.0714 88.5576C69.0714 88.5663 69.0714 88.575 69.0714 88.5837C69.0714 88.5924 69.0714 88.6012 69.0714 88.6099C69.0714 88.6186 69.0714 88.6273 69.0714 88.636C69.0714 88.6448 69.0714 88.6535 69.0714 88.6622C69.0714 88.671 69.0714 88.6797 69.0714 88.6884C69.0714 88.6971 69.0714 88.7059 69.0714 88.7146C69.0714 88.7233 69.0714 88.7321 69.0714 88.7408C69.0714 88.7495 69.0714 88.7583 69.0714 88.767C69.0714 88.7758 69.0714 88.7845 69.0714 88.7932C69.0714 88.802 69.0714 88.8107 69.0714 88.8195C69.0714 88.8282 69.0714 88.837 69.0714 88.8457C69.0714 88.8545 69.0714 88.8632 69.0714 88.872C69.0714 88.8807 69.0714 88.8895 69.0714 88.8982C69.0714 88.907 69.0714 88.9157 69.0714 88.9245C69.0714 88.9332 69.0714 88.942 69.0714 88.9508C69.0714 88.9595 69.0714 88.9683 69.0714 88.977C69.0714 88.9858 69.0714 88.9946 69.0714 89.0033C69.0714 89.0121 69.0714 89.0209 69.0714 89.0296C69.0714 89.0384 69.0714 89.0472 69.0714 89.0559C69.0714 89.0647 69.0714 89.0735 69.0714 89.0822C69.0714 89.091 69.0714 89.0998 69.0714 89.1086C69.0714 89.1173 69.0714 89.1261 69.0714 89.1349C69.0714 89.1437 69.0714 89.1525 69.0714 89.1612C69.0714 89.17 69.0714 89.1788 69.0714 89.1876C69.0714 89.1964 69.0714 89.2051 69.0714 89.2139C69.0714 89.2227 69.0714 89.2315 69.0714 89.2403C69.0714 89.2491 69.0714 89.2579 69.0714 89.2667C69.0714 89.2755 69.0714 89.2843 69.0714 89.2931C69.0714 89.3018 69.0714 89.3106 69.0714 89.3194C69.0714 89.3282 69.0714 89.337 69.0714 89.3458C69.0714 89.3546 69.0714 89.3634 69.0714 89.3722C69.0714 89.381 69.0714 89.3898 69.0714 89.3987C69.0714 89.4075 69.0714 89.4163 69.0714 89.4251C69.0714 89.4339 69.0714 89.4427 69.0714 89.4515C69.0714 89.4603 69.0714 89.4691 69.0714 89.4779C69.0714 89.4868 69.0714 89.4956 69.0714 89.5044C69.0714 89.5132 69.0714 89.522 69.0714 89.5308C69.0714 89.5397 69.0714 89.5485 69.0714 89.5573C69.0714 89.5661 69.0714 89.5749 69.0714 89.5838C69.0714 89.5926 69.0714 89.6014 69.0714 89.6103C69.0714 89.6191 69.0714 89.6279 69.0714 89.6367C69.0714 89.6456 69.0714 89.6544 69.0714 89.6632C69.0714 89.6721 69.0714 89.6809 69.0714 89.6897C69.0714 89.6986 69.0714 89.7074 69.0714 89.7162C69.0714 89.7251 69.0714 89.7339 69.0714 89.7428C69.0714 89.7516 69.0714 89.7604 69.0714 89.7693C69.0714 89.7781 69.0714 89.787 69.0714 89.7958C69.0714 89.8047 69.0714 89.8135 69.0714 89.8224C69.0714 89.8312 69.0714 89.8401 69.0714 89.8489C69.0714 89.8578 69.0714 89.8666 69.0714 89.8755C69.0714 89.8843 69.0714 89.8932 69.0714 89.902C69.0714 89.9109 69.0714 89.9198 69.0714 89.9286C69.0714 89.9375 69.0714 89.9463 69.0714 89.9552C69.0714 89.9641 69.0714 89.9729 69.0714 89.9818C69.0714 89.9907 69.0714 89.9995 69.0714 90.0084C69.0714 90.0173 69.0714 90.0261 69.0714 90.035C69.0714 90.0439 69.0714 90.0527 69.0714 90.0616C69.0714 90.0705 69.0714 90.0794 69.0714 90.0882C69.0714 90.0971 69.0714 90.106 69.0714 90.1149C69.0714 90.1237 69.0714 90.1326 69.0714 90.1415C69.0714 90.1504 69.0714 90.1593 69.0714 90.1682C69.0714 90.177 69.0714 90.1859 69.0714 90.1948C69.0714 90.2037 69.0714 90.2126 69.0714 90.2215C69.0714 90.2304 69.0714 90.2393 69.0714 90.2481C69.0714 90.257 69.0714 90.2659 69.0714 90.2748C69.0714 90.2837 69.0714 90.2926 69.0714 90.3015C69.0714 90.3104 69.0714 90.3193 69.0714 90.3282C69.0714 90.3371 69.0714 90.346 69.0714 90.3549C69.0714 90.3638 69.0714 90.3727 69.0714 90.3816C69.0714 90.3905 69.0714 90.3994 69.0714 90.4083C69.0714 90.4172 69.0714 90.4262 69.0714 90.4351C69.0714 90.444 69.0714 90.4529 69.0714 90.4618C69.0714 90.4707 69.0714 90.4796 69.0714 90.4885C69.0714 90.4975 69.0714 90.5064 69.0714 90.5153C69.0714 90.5242 69.0714 90.5331 69.0714 90.542C69.0714 90.551 69.0714 90.5599 69.0714 90.5688C69.0714 90.5777 69.0714 90.5867 69.0714 90.5956C69.0714 90.6045 69.0714 90.6134 69.0714 90.6224C69.0714 90.6313 69.0714 90.6402 69.0714 90.6492C69.0714 90.6581 69.0714 90.667 69.0714 90.6759C69.0714 90.6849 69.0714 90.6938 69.0714 90.7028C69.0714 90.7117 69.0714 90.7206 69.0714 90.7296C69.0714 90.7385 69.0714 90.7474 69.0714 90.7564C69.0714 90.7653 69.0714 90.7743 69.0714 90.7832C69.0714 90.7922 69.0714 90.8011 69.0714 90.8101C69.0714 90.819 69.0714 90.8279 69.0714 90.8369C69.0714 90.8458 69.0714 90.8548 69.0714 90.8637C69.0714 90.8727 69.0714 90.8817 69.0714 90.8906C69.0714 90.8996 69.0714 90.9085 69.0714 90.9175C69.0714 90.9264 69.0714 90.9354 69.0714 90.9443C69.0714 90.9533 69.0714 90.9623 69.0714 90.9712C69.0714 90.9802 69.0714 90.9892 69.0714 90.9981C69.0714 91.0071 69.0714 91.016 69.0714 91.025C69.0714 91.034 69.0714 91.0429 69.0714 91.0519C69.0714 91.0609 69.0714 91.0699 69.0714 91.0788C69.0714 91.0878 69.0714 91.0968 69.0714 91.1057C69.0714 91.1147 69.0714 91.1237 69.0714 91.1327C69.0714 91.1417 69.0714 91.1506 69.0714 91.1596C69.0714 91.1686 69.0714 91.1776 69.0714 91.1866C69.0714 91.1955 69.0714 91.2045 69.0714 91.2135C69.0714 91.2225 69.0714 91.2315 69.0714 91.2405C69.0714 91.2495 69.0714 91.2584 69.0714 91.2674C69.0714 91.2764 69.0714 91.2854 69.0714 91.2944C69.0714 91.3034 69.0714 91.3124 69.0714 91.3214C69.0714 91.3304 69.0714 91.3394 69.0714 91.3484C69.0714 91.3574 69.0714 91.3664 69.0714 91.3754C69.0714 91.3844 69.0714 91.3934 69.0714 91.4024C69.0714 91.4114 69.0714 91.4204 69.0714 91.4294C69.0714 91.4384 69.0714 91.4474 69.0714 91.4564C69.0714 91.4654 69.0714 91.4744 69.0714 91.4834C69.0714 91.4924 69.0714 91.5014 69.0714 91.5105C69.0714 91.5195 69.0714 91.5285 69.0714 91.5375C69.0714 91.5465 69.0714 91.5555 69.0714 91.5645C69.0714 91.5736 69.0714 91.5826 69.0714 91.5916C69.0714 91.6006 69.0714 91.6096 69.0714 91.6187C69.0714 91.6277 69.0714 91.6367 69.0714 91.6457C69.0714 91.6548 69.0714 91.6638 69.0714 91.6728C69.0714 91.6818 69.0714 91.6909 69.0714 91.6999C69.0714 91.7089 69.0714 91.718 69.0714 91.727C69.0714 91.736 69.0714 91.7451 69.0714 91.7541C69.0714 91.7631 69.0714 91.7722 69.0714 91.7812C69.0714 91.7902 69.0714 91.7993 69.0714 91.8083C69.0714 91.8174 69.0714 91.8264 69.0714 91.8354C69.0714 91.8445 69.0714 91.8535 69.0714 91.8626C69.0714 91.8716 69.0714 91.8807 69.0714 91.8897C69.0714 91.8988 69.0714 91.9078 69.0714 91.9168C69.0714 91.9259 69.0714 91.9349 69.0714 91.944C69.0714 91.953 69.0714 91.9621 69.0714 91.9712C69.0714 91.9802 69.0714 91.9893 69.0714 91.9983C69.0714 92.0074 69.0714 92.0164 69.0714 92.0255C69.0714 92.0346 69.0714 92.0436 69.0714 92.0527C69.0714 92.0617 69.0714 92.0708 69.0714 92.0799C69.0714 92.0889 69.0714 92.098 69.0714 92.1071C69.0714 92.1161 69.0714 92.1252 69.0714 92.1343C69.0714 92.1433 69.0714 92.1524 69.0714 92.1615C69.0714 92.1705 69.0714 92.1796 69.0714 92.1887C69.0714 92.1978 69.0714 92.2068 69.0714 92.2159C69.0714 92.225 69.0714 92.2341 69.0714 92.2431C69.0714 92.2522 69.0714 92.2613 69.0714 92.2704C69.0714 92.2795 69.0714 92.2886 69.0714 92.2976C69.0714 92.3067 69.0714 92.3158 69.0714 92.3249C69.0714 92.334 69.0714 92.3431 69.0714 92.3521C69.0714 92.3612 69.0714 92.3703 69.0714 92.3794C69.0714 92.3885 69.0714 92.3976 69.0714 92.4067C69.0714 92.4158 69.0714 92.4249 69.0714 92.434C69.0714 92.4431 69.0714 92.4522 69.0714 92.4613C69.0714 92.4704 69.0714 92.4795 69.0714 92.4886C69.0714 92.4977 69.0714 92.5068 69.0714 92.5159C69.0714 92.525 69.0714 92.5341 69.0714 92.5432C69.0714 92.5523 69.0714 92.5614 69.0714 92.5705C69.0714 92.5796 69.0714 92.5887 69.0714 92.5978C69.0714 92.6069 69.0714 92.6161 69.0714 92.6252C69.0714 92.6343 69.0714 92.6434 69.0714 92.6525C69.0714 92.6616 69.0714 92.6707 69.0714 92.6798C69.0714 92.689 69.0714 92.6981 69.0714 92.7072C69.0714 92.7163 69.0714 92.7254 69.0714 92.7346C69.0714 92.7437 69.0714 92.7528 69.0714 92.7619C69.0714 92.7711 69.0714 92.7802 69.0714 92.7893C69.0714 92.7984 69.0714 92.8076 69.0714 92.8167C69.0714 92.8258 69.0714 92.835 69.0714 92.8441C69.0714 92.8532 69.0714 92.8623 69.0714 92.8715C69.0714 92.8806 69.0714 92.8897 69.0714 92.8989C69.0714 92.908 69.0714 92.9172 69.0714 92.9263C69.0714 92.9354 69.0714 92.9446 69.0714 92.9537C69.0714 92.9629 69.0714 92.972 69.0714 92.9811C69.0714 92.9903 69.0714 92.9994 69.0714 93.0086C69.0714 93.0177 69.0714 93.0269 69.0714 93.036C69.0714 93.0452 69.0714 93.0543 69.0714 93.0635C69.0714 93.0726 69.0714 93.0818 69.0714 93.0909C69.0714 93.1001 69.0714 93.1092 69.0714 93.1184C69.0714 93.1275 69.0714 93.1367 69.0714 93.1458C69.0714 93.155 69.0714 93.1641 69.0714 93.1733C69.0714 93.1825 69.0714 93.1916 69.0714 93.2008C69.0714 93.2099 69.0714 93.2191 69.0714 93.2283C69.0714 93.2374 69.0714 93.2466 69.0714 93.2558C69.0714 93.2649 69.0714 93.2741 69.0714 93.2833C69.0714 93.2924 69.0714 93.3016 69.0714 93.3108C69.0714 93.32 69.0714 93.3291 69.0714 93.3383C69.0714 93.3475 69.0714 93.3566 69.0714 93.3658C69.0714 93.375 69.0714 93.3842 69.0714 93.3933C69.0714 93.4025 69.0714 93.4117 69.0714 93.4209C69.0714 93.4301 69.0714 93.4392 69.0714 93.4484C69.0714 93.4576 69.0714 93.4668 69.0714 93.476C69.0714 93.4852 69.0714 93.4943 69.0714 93.5035C69.0714 93.5127 69.0714 93.5219 69.0714 93.5311C69.0714 93.5403 69.0714 93.5495 69.0714 93.5587C69.0714 93.5679 69.0714 93.577 69.0714 93.5862C69.0714 93.5954 69.0714 93.6046 69.0714 93.6138C69.0714 93.623 69.0714 93.6322 69.0714 93.6414C69.0714 93.6506 69.0714 93.6598 69.0714 93.669C69.0714 93.6782 69.0714 93.6874 69.0714 93.6966C69.0714 93.7058 69.0714 93.715 69.0714 93.7242C69.0714 93.7334 69.0714 93.7426 69.0714 93.7518C69.0714 93.7611 69.0714 93.7703 69.0714 93.7795C69.0714 93.7887 69.0714 93.7979 69.0714 93.8071C69.0714 93.8163 69.0714 93.8255 69.0714 93.8347C69.0714 93.844 69.0714 93.8532 69.0714 93.8624C69.0714 93.8716 69.0714 93.8808 69.0714 93.89C69.0714 93.8993 69.0714 93.9085 69.0714 93.9177C69.0714 93.9269 69.0714 93.9361 69.0714 93.9454C69.0714 93.9546 69.0714 93.9638 69.0714 93.973C69.0714 93.9823 69.0714 93.9915 69.0714 94.0007C69.0714 94.0099 69.0714 94.0192 69.0714 94.0284C69.0714 94.0376 69.0714 94.0469 69.0714 94.0561C69.0714 94.0653 69.0714 94.0746 69.0714 94.0838C69.0714 94.093 69.0714 94.1023 69.0714 94.1115C69.0714 94.1207 69.0714 94.13 69.0714 94.1392C69.0714 94.1484 69.0714 94.1577 69.0714 94.1669C69.0714 94.1762 69.0714 94.1854 69.0714 94.1946C69.0714 94.2039 69.0714 94.2131 69.0714 94.2224C69.0714 94.2316 69.0714 94.2409 69.0714 94.2501C69.0714 94.2594 69.0714 94.2686 69.0714 94.2779C69.0714 94.2871 69.0714 94.2964 69.0714 94.3056C69.0714 94.3149 69.0714 94.3241 69.0714 94.3334C69.0714 94.3426 69.0714 94.3519 69.0714 94.3611C69.0714 94.3704 69.0714 94.3796 69.0714 94.3889C69.0714 94.3982 69.0714 94.4074 69.0714 94.4167C69.0714 94.4259 69.0714 94.4352 69.0714 94.4445C69.0714 94.4537 69.0714 94.463 69.0714 94.4723C69.0714 94.4815 69.0714 94.4908 69.0714 94.5001C69.0714 94.5093 69.0714 94.5186 69.0714 94.5279C69.0714 94.5371 69.0714 94.5464 69.0714 94.5557C69.0714 94.5649 69.0714 94.5742 69.0714 94.5835C69.0714 94.5928 69.0714 94.602 69.0714 94.6113C69.0714 94.6206 69.0714 94.6299 69.0714 94.6391C69.0714 94.6484 69.0714 94.6577 69.0714 94.667C69.0714 94.6763 69.0714 94.6855 69.0714 94.6948C69.0714 94.7041 69.0714 94.7134 69.0714 94.7227C69.0714 94.7319 69.0714 94.7412 69.0714 94.7505C69.0714 94.7598 69.0714 94.7691 69.0714 94.7784C69.0714 94.7877 69.0714 94.797 69.0714 94.8063C69.0714 94.8155 69.0714 94.8248 69.0714 94.8341C69.0714 94.8434 69.0714 94.8527 69.0714 94.862C69.0714 94.8713 69.0714 94.8806 69.0714 94.8899C69.0714 94.8992 69.0714 94.9085 69.0714 94.9178C69.0714 94.9271 69.0714 94.9364 69.0714 94.9457C69.0714 94.955 69.0714 94.9643 69.0714 94.9736C69.0714 94.9829 69.0714 94.9922 69.0714 95.0015C69.0714 95.0108 69.0714 95.0201 69.0714 95.0294C69.0714 95.0387 69.0714 95.048 69.0714 95.0574C69.0714 95.0667 69.0714 95.076 69.0714 95.0853C69.0714 95.0946 69.0714 95.1039 69.0714 95.1132C69.0714 95.1225 69.0714 95.1319 69.0714 95.1412C69.0714 95.1505 69.0714 95.1598 69.0714 95.1691C69.0714 95.1784 69.0714 95.1878 69.0714 95.1971C69.0714 95.2064 69.0714 95.2157 69.0714 95.225C69.0714 95.2344 69.0714 95.2437 69.0714 95.253C69.0714 95.2623 69.0714 95.2717 69.0714 95.281C69.0714 95.2903 69.0714 95.2996 69.0714 95.309C69.0714 95.3183 69.0714 95.3276 69.0714 95.337C69.0714 95.3463 69.0714 95.3556 69.0714 95.365C69.0714 95.3743 69.0714 95.3836 69.0714 95.393C69.0714 95.4023 69.0714 95.4116 69.0714 95.421C69.0714 95.4303 69.0714 95.4396 69.0714 95.449C69.0714 95.4583 69.0714 95.4677 69.0714 95.477C69.0714 95.4863 69.0714 95.4957 69.0714 95.505C69.0714 95.5144 69.0714 95.5237 69.0714 95.5331C69.0714 95.5424 69.0714 95.5517 69.0714 95.5611C69.0714 95.5704 69.0714 95.5798 69.0714 95.5891C69.0714 95.5985 69.0714 95.6078 69.0714 95.6172C69.0714 95.6265 69.0714 95.6359 69.0714 95.6452C69.0714 95.6546 69.0714 95.6639 69.0714 95.6733C69.0714 95.6827 69.0714 95.692 69.0714 95.7014C69.0714 95.7107 69.0714 95.7201 69.0714 95.7294C69.0714 95.7388 69.0714 95.7482 69.0714 95.7575C69.0714 95.7669 69.0714 95.7763 69.0714 95.7856C69.0714 95.795 69.0714 95.8043 69.0714 95.8137C69.0714 95.8231 69.0714 95.8324 69.0714 95.8418C69.0714 95.8512 69.0714 95.8605 69.0714 95.8699C69.0714 95.8793 69.0714 95.8887 69.0714 95.898C69.0714 95.9074 69.0714 95.9168 69.0714 95.9261C69.0714 95.9355 69.0714 95.9449 69.0714 95.9543C69.0714 95.9636 69.0714 95.973 69.0714 95.9824C69.0714 95.9918 69.0714 96.0012 69.0714 96.0105C69.0714 96.0199 69.0714 96.0293 69.0714 96.0387C69.0714 96.0481 69.0714 96.0574 69.0714 96.0668C69.0714 96.0762 69.0714 96.0856 69.0714 96.095C69.0714 96.1044 69.0714 96.1138 69.0714 96.1231C69.0714 96.1325 69.0714 96.1419 69.0714 96.1513C69.0714 96.1607 69.0714 96.1701 69.0714 96.1795C69.0714 96.1889 69.0714 96.1983 69.0714 96.2077C69.0714 96.217 69.0714 96.2264 69.0714 96.2358C69.0714 96.2452 69.0714 96.2546 69.0714 96.264C69.0714 96.2734 69.0714 96.2828 69.0714 96.2922C69.0714 96.3016 69.0714 96.311 69.0714 96.3204C69.0714 96.3298 69.0714 96.3392 69.0714 96.3486C69.0714 96.358 69.0714 96.3674 69.0714 96.3769C69.0714 96.3863 69.0714 96.3957 69.0714 96.4051C69.0714 96.4145 69.0714 96.4239 69.0714 96.4333C69.0714 96.4427 69.0714 96.4521 69.0714 96.4615C69.0714 96.4709 69.0714 96.4804 69.0714 96.4898C69.0714 96.4992 69.0714 96.5086 69.0714 96.518C69.0714 96.5274 69.0714 96.5368 69.0714 96.5463C69.0714 96.5557 69.0714 96.5651 69.0714 96.5745C69.0714 96.5839 69.0714 96.5934 69.0714 96.6028C69.0714 96.6122 69.0714 96.6216 69.0714 96.631C69.0714 96.6405 69.0714 96.6499 69.0714 96.6593C69.0714 96.6687 69.0714 96.6782 69.0714 96.6876C69.0714 96.697 69.0714 96.7064 69.0714 96.7159C69.0714 96.7253 69.0714 96.7347 69.0714 96.7442C69.0714 96.7536 69.0714 96.763 69.0714 96.7725C69.0714 96.7819 69.0714 96.7913 69.0714 96.8008C69.0714 96.8102 69.0714 96.8196 69.0714 96.8291C69.0714 96.8385 69.0714 96.8479 69.0714 96.8574C69.0714 96.8668 69.0714 96.8763 69.0714 96.8857C69.0714 96.8951 69.0714 96.9046 69.0714 96.914C69.0714 96.9235 69.0714 96.9329 69.0714 96.9424C69.0714 96.9518 69.0714 96.9613 69.0714 96.9707C69.0714 96.9801 69.0714 96.9896 69.0714 96.999C69.0714 97.0085 69.0714 97.0179 69.0714 97.0274C69.0714 97.0368 69.0714 97.0463 69.0714 97.0557C69.0714 97.0652 69.0714 97.0746 69.0714 97.0841C69.0714 97.0936 69.0714 97.103 69.0714 97.1125C69.0714 97.1219 69.0714 97.1314 69.0714 97.1408C69.0714 97.1503 69.0714 97.1597 69.0714 97.1692C69.0714 97.1787 69.0714 97.1881 69.0714 97.1976C69.0714 97.207 69.0714 97.2165 69.0714 97.226C69.0714 97.2354 69.0714 97.2449 69.0714 97.2544C69.0714 97.2638 69.0714 97.2733 69.0714 97.2828C69.0714 97.2922 69.0714 97.3017 69.0714 97.3112C69.0714 97.3206 69.0714 97.3301 69.0714 97.3396C69.0714 97.3491 69.0714 97.3585 69.0714 97.368C69.0714 97.3775 69.0714 97.3869 69.0714 97.3964C69.0714 97.4059 69.0714 97.4154 69.0714 97.4248C69.0714 97.4343 69.0714 97.4438 69.0714 97.4533C69.0714 97.4628 69.0714 97.4722 69.0714 97.4817C69.0714 97.4912 69.0714 97.5007 69.0714 97.5102C69.0714 97.5196 69.0714 97.5291 69.0714 97.5386C69.0714 97.5481 69.0714 97.5576 69.0714 97.5671C69.0714 97.5765 69.0714 97.586 69.0714 97.5955C69.0714 97.605 69.0714 97.6145 69.0714 97.624C69.0714 97.6335 69.0714 97.643 69.0714 97.6525C69.0714 97.6619 69.0714 97.6714 69.0714 97.6809C69.0714 97.6904 69.0714 97.6999 69.0714 97.7094C69.0714 97.7189 69.0714 97.7284 69.0714 97.7379C69.0714 97.7474 69.0714 97.7569 69.0714 97.7664C69.0714 97.7759 69.0714 97.7854 69.0714 97.7949C69.0714 97.8044 69.0714 97.8139 69.0714 97.8234C69.0714 97.8329 69.0714 97.8424 69.0714 97.8519C69.0714 97.8614 69.0714 97.8709 69.0714 97.8804C69.0714 97.8899 69.0714 97.8994 69.0714 97.9089C69.0714 97.9184 69.0714 97.928 69.0714 97.9375H73.0714C73.0714 97.928 73.0714 97.9184 73.0714 97.9089C73.0714 97.8994 73.0714 97.8899 73.0714 97.8804C73.0714 97.8709 73.0714 97.8614 73.0714 97.8519C73.0714 97.8424 73.0714 97.8329 73.0714 97.8234C73.0714 97.8139 73.0714 97.8044 73.0714 97.7949C73.0714 97.7854 73.0714 97.7759 73.0714 97.7664C73.0714 97.7569 73.0714 97.7474 73.0714 97.7379C73.0714 97.7284 73.0714 97.7189 73.0714 97.7094C73.0714 97.6999 73.0714 97.6904 73.0714 97.6809C73.0714 97.6714 73.0714 97.6619 73.0714 97.6525C73.0714 97.643 73.0714 97.6335 73.0714 97.624C73.0714 97.6145 73.0714 97.605 73.0714 97.5955C73.0714 97.586 73.0714 97.5765 73.0714 97.5671C73.0714 97.5576 73.0714 97.5481 73.0714 97.5386C73.0714 97.5291 73.0714 97.5196 73.0714 97.5102C73.0714 97.5007 73.0714 97.4912 73.0714 97.4817C73.0714 97.4722 73.0714 97.4628 73.0714 97.4533C73.0714 97.4438 73.0714 97.4343 73.0714 97.4248C73.0714 97.4154 73.0714 97.4059 73.0714 97.3964C73.0714 97.3869 73.0714 97.3775 73.0714 97.368C73.0714 97.3585 73.0714 97.3491 73.0714 97.3396C73.0714 97.3301 73.0714 97.3206 73.0714 97.3112C73.0714 97.3017 73.0714 97.2922 73.0714 97.2828C73.0714 97.2733 73.0714 97.2638 73.0714 97.2544C73.0714 97.2449 73.0714 97.2354 73.0714 97.226C73.0714 97.2165 73.0714 97.207 73.0714 97.1976C73.0714 97.1881 73.0714 97.1787 73.0714 97.1692C73.0714 97.1597 73.0714 97.1503 73.0714 97.1408C73.0714 97.1314 73.0714 97.1219 73.0714 97.1125C73.0714 97.103 73.0714 97.0936 73.0714 97.0841C73.0714 97.0746 73.0714 97.0652 73.0714 97.0557C73.0714 97.0463 73.0714 97.0368 73.0714 97.0274C73.0714 97.0179 73.0714 97.0085 73.0714 96.999C73.0714 96.9896 73.0714 96.9801 73.0714 96.9707C73.0714 96.9613 73.0714 96.9518 73.0714 96.9424C73.0714 96.9329 73.0714 96.9235 73.0714 96.914C73.0714 96.9046 73.0714 96.8951 73.0714 96.8857C73.0714 96.8763 73.0714 96.8668 73.0714 96.8574C73.0714 96.8479 73.0714 96.8385 73.0714 96.8291C73.0714 96.8196 73.0714 96.8102 73.0714 96.8008C73.0714 96.7913 73.0714 96.7819 73.0714 96.7725C73.0714 96.763 73.0714 96.7536 73.0714 96.7442C73.0714 96.7347 73.0714 96.7253 73.0714 96.7159C73.0714 96.7064 73.0714 96.697 73.0714 96.6876C73.0714 96.6782 73.0714 96.6687 73.0714 96.6593C73.0714 96.6499 73.0714 96.6405 73.0714 96.631C73.0714 96.6216 73.0714 96.6122 73.0714 96.6028C73.0714 96.5934 73.0714 96.5839 73.0714 96.5745C73.0714 96.5651 73.0714 96.5557 73.0714 96.5463C73.0714 96.5368 73.0714 96.5274 73.0714 96.518C73.0714 96.5086 73.0714 96.4992 73.0714 96.4898C73.0714 96.4804 73.0714 96.4709 73.0714 96.4615C73.0714 96.4521 73.0714 96.4427 73.0714 96.4333C73.0714 96.4239 73.0714 96.4145 73.0714 96.4051C73.0714 96.3957 73.0714 96.3863 73.0714 96.3769C73.0714 96.3674 73.0714 96.358 73.0714 96.3486C73.0714 96.3392 73.0714 96.3298 73.0714 96.3204C73.0714 96.311 73.0714 96.3016 73.0714 96.2922C73.0714 96.2828 73.0714 96.2734 73.0714 96.264C73.0714 96.2546 73.0714 96.2452 73.0714 96.2358C73.0714 96.2264 73.0714 96.217 73.0714 96.2077C73.0714 96.1983 73.0714 96.1889 73.0714 96.1795C73.0714 96.1701 73.0714 96.1607 73.0714 96.1513C73.0714 96.1419 73.0714 96.1325 73.0714 96.1231C73.0714 96.1138 73.0714 96.1044 73.0714 96.095C73.0714 96.0856 73.0714 96.0762 73.0714 96.0668C73.0714 96.0574 73.0714 96.0481 73.0714 96.0387C73.0714 96.0293 73.0714 96.0199 73.0714 96.0105C73.0714 96.0012 73.0714 95.9918 73.0714 95.9824C73.0714 95.973 73.0714 95.9636 73.0714 95.9543C73.0714 95.9449 73.0714 95.9355 73.0714 95.9261C73.0714 95.9168 73.0714 95.9074 73.0714 95.898C73.0714 95.8887 73.0714 95.8793 73.0714 95.8699C73.0714 95.8605 73.0714 95.8512 73.0714 95.8418C73.0714 95.8324 73.0714 95.8231 73.0714 95.8137C73.0714 95.8043 73.0714 95.795 73.0714 95.7856C73.0714 95.7763 73.0714 95.7669 73.0714 95.7575C73.0714 95.7482 73.0714 95.7388 73.0714 95.7294C73.0714 95.7201 73.0714 95.7107 73.0714 95.7014C73.0714 95.692 73.0714 95.6827 73.0714 95.6733C73.0714 95.6639 73.0714 95.6546 73.0714 95.6452C73.0714 95.6359 73.0714 95.6265 73.0714 95.6172C73.0714 95.6078 73.0714 95.5985 73.0714 95.5891C73.0714 95.5798 73.0714 95.5704 73.0714 95.5611C73.0714 95.5517 73.0714 95.5424 73.0714 95.5331C73.0714 95.5237 73.0714 95.5144 73.0714 95.505C73.0714 95.4957 73.0714 95.4863 73.0714 95.477C73.0714 95.4677 73.0714 95.4583 73.0714 95.449C73.0714 95.4396 73.0714 95.4303 73.0714 95.421C73.0714 95.4116 73.0714 95.4023 73.0714 95.393C73.0714 95.3836 73.0714 95.3743 73.0714 95.365C73.0714 95.3556 73.0714 95.3463 73.0714 95.337C73.0714 95.3276 73.0714 95.3183 73.0714 95.309C73.0714 95.2996 73.0714 95.2903 73.0714 95.281C73.0714 95.2717 73.0714 95.2623 73.0714 95.253C73.0714 95.2437 73.0714 95.2344 73.0714 95.225C73.0714 95.2157 73.0714 95.2064 73.0714 95.1971C73.0714 95.1878 73.0714 95.1784 73.0714 95.1691C73.0714 95.1598 73.0714 95.1505 73.0714 95.1412C73.0714 95.1319 73.0714 95.1225 73.0714 95.1132C73.0714 95.1039 73.0714 95.0946 73.0714 95.0853C73.0714 95.076 73.0714 95.0667 73.0714 95.0574C73.0714 95.048 73.0714 95.0387 73.0714 95.0294C73.0714 95.0201 73.0714 95.0108 73.0714 95.0015C73.0714 94.9922 73.0714 94.9829 73.0714 94.9736C73.0714 94.9643 73.0714 94.955 73.0714 94.9457C73.0714 94.9364 73.0714 94.9271 73.0714 94.9178C73.0714 94.9085 73.0714 94.8992 73.0714 94.8899C73.0714 94.8806 73.0714 94.8713 73.0714 94.862C73.0714 94.8527 73.0714 94.8434 73.0714 94.8341C73.0714 94.8248 73.0714 94.8155 73.0714 94.8063C73.0714 94.797 73.0714 94.7877 73.0714 94.7784C73.0714 94.7691 73.0714 94.7598 73.0714 94.7505C73.0714 94.7412 73.0714 94.7319 73.0714 94.7227C73.0714 94.7134 73.0714 94.7041 73.0714 94.6948C73.0714 94.6855 73.0714 94.6763 73.0714 94.667C73.0714 94.6577 73.0714 94.6484 73.0714 94.6391C73.0714 94.6299 73.0714 94.6206 73.0714 94.6113C73.0714 94.602 73.0714 94.5928 73.0714 94.5835C73.0714 94.5742 73.0714 94.5649 73.0714 94.5557C73.0714 94.5464 73.0714 94.5371 73.0714 94.5279C73.0714 94.5186 73.0714 94.5093 73.0714 94.5001C73.0714 94.4908 73.0714 94.4815 73.0714 94.4723C73.0714 94.463 73.0714 94.4537 73.0714 94.4445C73.0714 94.4352 73.0714 94.4259 73.0714 94.4167C73.0714 94.4074 73.0714 94.3982 73.0714 94.3889C73.0714 94.3796 73.0714 94.3704 73.0714 94.3611C73.0714 94.3519 73.0714 94.3426 73.0714 94.3334C73.0714 94.3241 73.0714 94.3149 73.0714 94.3056C73.0714 94.2964 73.0714 94.2871 73.0714 94.2779C73.0714 94.2686 73.0714 94.2594 73.0714 94.2501C73.0714 94.2409 73.0714 94.2316 73.0714 94.2224C73.0714 94.2131 73.0714 94.2039 73.0714 94.1946C73.0714 94.1854 73.0714 94.1762 73.0714 94.1669C73.0714 94.1577 73.0714 94.1484 73.0714 94.1392C73.0714 94.13 73.0714 94.1207 73.0714 94.1115C73.0714 94.1023 73.0714 94.093 73.0714 94.0838C73.0714 94.0746 73.0714 94.0653 73.0714 94.0561C73.0714 94.0469 73.0714 94.0376 73.0714 94.0284C73.0714 94.0192 73.0714 94.0099 73.0714 94.0007C73.0714 93.9915 73.0714 93.9823 73.0714 93.973C73.0714 93.9638 73.0714 93.9546 73.0714 93.9454C73.0714 93.9361 73.0714 93.9269 73.0714 93.9177C73.0714 93.9085 73.0714 93.8993 73.0714 93.89C73.0714 93.8808 73.0714 93.8716 73.0714 93.8624C73.0714 93.8532 73.0714 93.844 73.0714 93.8347C73.0714 93.8255 73.0714 93.8163 73.0714 93.8071C73.0714 93.7979 73.0714 93.7887 73.0714 93.7795C73.0714 93.7703 73.0714 93.7611 73.0714 93.7518C73.0714 93.7426 73.0714 93.7334 73.0714 93.7242C73.0714 93.715 73.0714 93.7058 73.0714 93.6966C73.0714 93.6874 73.0714 93.6782 73.0714 93.669C73.0714 93.6598 73.0714 93.6506 73.0714 93.6414C73.0714 93.6322 73.0714 93.623 73.0714 93.6138C73.0714 93.6046 73.0714 93.5954 73.0714 93.5862C73.0714 93.577 73.0714 93.5679 73.0714 93.5587C73.0714 93.5495 73.0714 93.5403 73.0714 93.5311C73.0714 93.5219 73.0714 93.5127 73.0714 93.5035C73.0714 93.4943 73.0714 93.4852 73.0714 93.476C73.0714 93.4668 73.0714 93.4576 73.0714 93.4484C73.0714 93.4392 73.0714 93.4301 73.0714 93.4209C73.0714 93.4117 73.0714 93.4025 73.0714 93.3933C73.0714 93.3842 73.0714 93.375 73.0714 93.3658C73.0714 93.3566 73.0714 93.3475 73.0714 93.3383C73.0714 93.3291 73.0714 93.32 73.0714 93.3108C73.0714 93.3016 73.0714 93.2924 73.0714 93.2833C73.0714 93.2741 73.0714 93.2649 73.0714 93.2558C73.0714 93.2466 73.0714 93.2374 73.0714 93.2283C73.0714 93.2191 73.0714 93.2099 73.0714 93.2008C73.0714 93.1916 73.0714 93.1825 73.0714 93.1733C73.0714 93.1641 73.0714 93.155 73.0714 93.1458C73.0714 93.1367 73.0714 93.1275 73.0714 93.1184C73.0714 93.1092 73.0714 93.1001 73.0714 93.0909C73.0714 93.0818 73.0714 93.0726 73.0714 93.0635C73.0714 93.0543 73.0714 93.0452 73.0714 93.036C73.0714 93.0269 73.0714 93.0177 73.0714 93.0086C73.0714 92.9994 73.0714 92.9903 73.0714 92.9811C73.0714 92.972 73.0714 92.9629 73.0714 92.9537C73.0714 92.9446 73.0714 92.9354 73.0714 92.9263C73.0714 92.9172 73.0714 92.908 73.0714 92.8989C73.0714 92.8897 73.0714 92.8806 73.0714 92.8715C73.0714 92.8623 73.0714 92.8532 73.0714 92.8441C73.0714 92.835 73.0714 92.8258 73.0714 92.8167C73.0714 92.8076 73.0714 92.7984 73.0714 92.7893C73.0714 92.7802 73.0714 92.7711 73.0714 92.7619C73.0714 92.7528 73.0714 92.7437 73.0714 92.7346C73.0714 92.7254 73.0714 92.7163 73.0714 92.7072C73.0714 92.6981 73.0714 92.689 73.0714 92.6798C73.0714 92.6707 73.0714 92.6616 73.0714 92.6525C73.0714 92.6434 73.0714 92.6343 73.0714 92.6252C73.0714 92.6161 73.0714 92.6069 73.0714 92.5978C73.0714 92.5887 73.0714 92.5796 73.0714 92.5705C73.0714 92.5614 73.0714 92.5523 73.0714 92.5432C73.0714 92.5341 73.0714 92.525 73.0714 92.5159C73.0714 92.5068 73.0714 92.4977 73.0714 92.4886C73.0714 92.4795 73.0714 92.4704 73.0714 92.4613C73.0714 92.4522 73.0714 92.4431 73.0714 92.434C73.0714 92.4249 73.0714 92.4158 73.0714 92.4067C73.0714 92.3976 73.0714 92.3885 73.0714 92.3794C73.0714 92.3703 73.0714 92.3612 73.0714 92.3521C73.0714 92.3431 73.0714 92.334 73.0714 92.3249C73.0714 92.3158 73.0714 92.3067 73.0714 92.2976C73.0714 92.2886 73.0714 92.2795 73.0714 92.2704C73.0714 92.2613 73.0714 92.2522 73.0714 92.2431C73.0714 92.2341 73.0714 92.225 73.0714 92.2159C73.0714 92.2068 73.0714 92.1978 73.0714 92.1887C73.0714 92.1796 73.0714 92.1705 73.0714 92.1615C73.0714 92.1524 73.0714 92.1433 73.0714 92.1343C73.0714 92.1252 73.0714 92.1161 73.0714 92.1071C73.0714 92.098 73.0714 92.0889 73.0714 92.0799C73.0714 92.0708 73.0714 92.0617 73.0714 92.0527C73.0714 92.0436 73.0714 92.0346 73.0714 92.0255C73.0714 92.0164 73.0714 92.0074 73.0714 91.9983C73.0714 91.9893 73.0714 91.9802 73.0714 91.9712C73.0714 91.9621 73.0714 91.953 73.0714 91.944C73.0714 91.9349 73.0714 91.9259 73.0714 91.9168C73.0714 91.9078 73.0714 91.8988 73.0714 91.8897C73.0714 91.8807 73.0714 91.8716 73.0714 91.8626C73.0714 91.8535 73.0714 91.8445 73.0714 91.8354C73.0714 91.8264 73.0714 91.8174 73.0714 91.8083C73.0714 91.7993 73.0714 91.7902 73.0714 91.7812C73.0714 91.7722 73.0714 91.7631 73.0714 91.7541C73.0714 91.7451 73.0714 91.736 73.0714 91.727C73.0714 91.718 73.0714 91.7089 73.0714 91.6999C73.0714 91.6909 73.0714 91.6818 73.0714 91.6728C73.0714 91.6638 73.0714 91.6548 73.0714 91.6457C73.0714 91.6367 73.0714 91.6277 73.0714 91.6187C73.0714 91.6096 73.0714 91.6006 73.0714 91.5916C73.0714 91.5826 73.0714 91.5736 73.0714 91.5645C73.0714 91.5555 73.0714 91.5465 73.0714 91.5375C73.0714 91.5285 73.0714 91.5195 73.0714 91.5105C73.0714 91.5014 73.0714 91.4924 73.0714 91.4834C73.0714 91.4744 73.0714 91.4654 73.0714 91.4564C73.0714 91.4474 73.0714 91.4384 73.0714 91.4294C73.0714 91.4204 73.0714 91.4114 73.0714 91.4024C73.0714 91.3934 73.0714 91.3844 73.0714 91.3754C73.0714 91.3664 73.0714 91.3574 73.0714 91.3484C73.0714 91.3394 73.0714 91.3304 73.0714 91.3214C73.0714 91.3124 73.0714 91.3034 73.0714 91.2944C73.0714 91.2854 73.0714 91.2764 73.0714 91.2674C73.0714 91.2584 73.0714 91.2495 73.0714 91.2405C73.0714 91.2315 73.0714 91.2225 73.0714 91.2135C73.0714 91.2045 73.0714 91.1955 73.0714 91.1866C73.0714 91.1776 73.0714 91.1686 73.0714 91.1596C73.0714 91.1506 73.0714 91.1417 73.0714 91.1327C73.0714 91.1237 73.0714 91.1147 73.0714 91.1057C73.0714 91.0968 73.0714 91.0878 73.0714 91.0788C73.0714 91.0699 73.0714 91.0609 73.0714 91.0519C73.0714 91.0429 73.0714 91.034 73.0714 91.025C73.0714 91.016 73.0714 91.0071 73.0714 90.9981C73.0714 90.9892 73.0714 90.9802 73.0714 90.9712C73.0714 90.9623 73.0714 90.9533 73.0714 90.9443C73.0714 90.9354 73.0714 90.9264 73.0714 90.9175C73.0714 90.9085 73.0714 90.8996 73.0714 90.8906C73.0714 90.8817 73.0714 90.8727 73.0714 90.8637C73.0714 90.8548 73.0714 90.8458 73.0714 90.8369C73.0714 90.8279 73.0714 90.819 73.0714 90.8101C73.0714 90.8011 73.0714 90.7922 73.0714 90.7832C73.0714 90.7743 73.0714 90.7653 73.0714 90.7564C73.0714 90.7474 73.0714 90.7385 73.0714 90.7296C73.0714 90.7206 73.0714 90.7117 73.0714 90.7028C73.0714 90.6938 73.0714 90.6849 73.0714 90.6759C73.0714 90.667 73.0714 90.6581 73.0714 90.6492C73.0714 90.6402 73.0714 90.6313 73.0714 90.6224C73.0714 90.6134 73.0714 90.6045 73.0714 90.5956C73.0714 90.5867 73.0714 90.5777 73.0714 90.5688C73.0714 90.5599 73.0714 90.551 73.0714 90.542C73.0714 90.5331 73.0714 90.5242 73.0714 90.5153C73.0714 90.5064 73.0714 90.4975 73.0714 90.4885C73.0714 90.4796 73.0714 90.4707 73.0714 90.4618C73.0714 90.4529 73.0714 90.444 73.0714 90.4351C73.0714 90.4262 73.0714 90.4172 73.0714 90.4083C73.0714 90.3994 73.0714 90.3905 73.0714 90.3816C73.0714 90.3727 73.0714 90.3638 73.0714 90.3549C73.0714 90.346 73.0714 90.3371 73.0714 90.3282C73.0714 90.3193 73.0714 90.3104 73.0714 90.3015C73.0714 90.2926 73.0714 90.2837 73.0714 90.2748C73.0714 90.2659 73.0714 90.257 73.0714 90.2481C73.0714 90.2393 73.0714 90.2304 73.0714 90.2215C73.0714 90.2126 73.0714 90.2037 73.0714 90.1948C73.0714 90.1859 73.0714 90.177 73.0714 90.1682C73.0714 90.1593 73.0714 90.1504 73.0714 90.1415C73.0714 90.1326 73.0714 90.1237 73.0714 90.1149C73.0714 90.106 73.0714 90.0971 73.0714 90.0882C73.0714 90.0794 73.0714 90.0705 73.0714 90.0616C73.0714 90.0527 73.0714 90.0439 73.0714 90.035C73.0714 90.0261 73.0714 90.0173 73.0714 90.0084C73.0714 89.9995 73.0714 89.9907 73.0714 89.9818C73.0714 89.9729 73.0714 89.9641 73.0714 89.9552C73.0714 89.9463 73.0714 89.9375 73.0714 89.9286C73.0714 89.9198 73.0714 89.9109 73.0714 89.902C73.0714 89.8932 73.0714 89.8843 73.0714 89.8755C73.0714 89.8666 73.0714 89.8578 73.0714 89.8489C73.0714 89.8401 73.0714 89.8312 73.0714 89.8224C73.0714 89.8135 73.0714 89.8047 73.0714 89.7958C73.0714 89.787 73.0714 89.7781 73.0714 89.7693C73.0714 89.7604 73.0714 89.7516 73.0714 89.7428C73.0714 89.7339 73.0714 89.7251 73.0714 89.7162C73.0714 89.7074 73.0714 89.6986 73.0714 89.6897C73.0714 89.6809 73.0714 89.6721 73.0714 89.6632C73.0714 89.6544 73.0714 89.6456 73.0714 89.6367C73.0714 89.6279 73.0714 89.6191 73.0714 89.6103C73.0714 89.6014 73.0714 89.5926 73.0714 89.5838C73.0714 89.5749 73.0714 89.5661 73.0714 89.5573C73.0714 89.5485 73.0714 89.5397 73.0714 89.5308C73.0714 89.522 73.0714 89.5132 73.0714 89.5044C73.0714 89.4956 73.0714 89.4868 73.0714 89.4779C73.0714 89.4691 73.0714 89.4603 73.0714 89.4515C73.0714 89.4427 73.0714 89.4339 73.0714 89.4251C73.0714 89.4163 73.0714 89.4075 73.0714 89.3987C73.0714 89.3898 73.0714 89.381 73.0714 89.3722C73.0714 89.3634 73.0714 89.3546 73.0714 89.3458C73.0714 89.337 73.0714 89.3282 73.0714 89.3194C73.0714 89.3106 73.0714 89.3018 73.0714 89.2931C73.0714 89.2843 73.0714 89.2755 73.0714 89.2667C73.0714 89.2579 73.0714 89.2491 73.0714 89.2403C73.0714 89.2315 73.0714 89.2227 73.0714 89.2139C73.0714 89.2051 73.0714 89.1964 73.0714 89.1876C73.0714 89.1788 73.0714 89.17 73.0714 89.1612C73.0714 89.1525 73.0714 89.1437 73.0714 89.1349C73.0714 89.1261 73.0714 89.1173 73.0714 89.1086C73.0714 89.0998 73.0714 89.091 73.0714 89.0822C73.0714 89.0735 73.0714 89.0647 73.0714 89.0559C73.0714 89.0472 73.0714 89.0384 73.0714 89.0296C73.0714 89.0209 73.0714 89.0121 73.0714 89.0033C73.0714 88.9946 73.0714 88.9858 73.0714 88.977C73.0714 88.9683 73.0714 88.9595 73.0714 88.9508C73.0714 88.942 73.0714 88.9332 73.0714 88.9245C73.0714 88.9157 73.0714 88.907 73.0714 88.8982C73.0714 88.8895 73.0714 88.8807 73.0714 88.872C73.0714 88.8632 73.0714 88.8545 73.0714 88.8457C73.0714 88.837 73.0714 88.8282 73.0714 88.8195C73.0714 88.8107 73.0714 88.802 73.0714 88.7932C73.0714 88.7845 73.0714 88.7758 73.0714 88.767C73.0714 88.7583 73.0714 88.7495 73.0714 88.7408C73.0714 88.7321 73.0714 88.7233 73.0714 88.7146C73.0714 88.7059 73.0714 88.6971 73.0714 88.6884C73.0714 88.6797 73.0714 88.671 73.0714 88.6622C73.0714 88.6535 73.0714 88.6448 73.0714 88.636C73.0714 88.6273 73.0714 88.6186 73.0714 88.6099C73.0714 88.6012 73.0714 88.5924 73.0714 88.5837C73.0714 88.575 73.0714 88.5663 73.0714 88.5576C73.0714 88.5488 73.0714 88.5401 73.0714 88.5314C73.0714 88.5227 73.0714 88.514 73.0714 88.5053C73.0714 88.4966 73.0714 88.4878 73.0714 88.4791C73.0714 88.4704 73.0714 88.4617 73.0714 88.453C73.0714 88.4443 73.0714 88.4356 73.0714 88.4269C73.0714 88.4182 73.0714 88.4095 73.0714 88.4008C73.0714 88.3921 73.0714 88.3834 73.0714 88.3747C73.0714 88.366 73.0714 88.3573 73.0714 88.3486C73.0714 88.3399 73.0714 88.3312 73.0714 88.3225C73.0714 88.3139 73.0714 88.3052 73.0714 88.2965C73.0714 88.2878 73.0714 88.2791 73.0714 88.2704C73.0714 88.2617 73.0714 88.2531 73.0714 88.2444C73.0714 88.2357 73.0714 88.227 73.0714 88.2183C73.0714 88.2096 73.0714 88.201 73.0714 88.1923C73.0714 88.1836 73.0714 88.1749 73.0714 88.1663C73.0714 88.1576 73.0714 88.1489 73.0714 88.1402C73.0714 88.1316 73.0714 88.1229 73.0714 88.1142C73.0714 88.1056 73.0714 88.0969 73.0714 88.0882C73.0714 88.0796 73.0714 88.0709 73.0714 88.0622C73.0714 88.0536 73.0714 88.0449 73.0714 88.0363C73.0714 88.0276 73.0714 88.0189 73.0714 88.0103C73.0714 88.0016 73.0714 87.993 73.0714 87.9843C73.0714 87.9757 73.0714 87.967 73.0714 87.9584C73.0714 87.9497 73.0714 87.9411 73.0714 87.9324C73.0714 87.9238 73.0714 87.9151 73.0714 87.9065C73.0714 87.8978 73.0714 87.8892 73.0714 87.8805C73.0714 87.8719 73.0714 87.8633 73.0714 87.8546C73.0714 87.846 73.0714 87.8373 73.0714 87.8287C73.0714 87.8201 73.0714 87.8114 73.0714 87.8028C73.0714 87.7942 73.0714 87.7855 73.0714 87.7769C73.0714 87.7683 73.0714 87.7597 73.0714 87.751C73.0714 87.7424 73.0714 87.7338 73.0714 87.7251C73.0714 87.7165 73.0714 87.7079 73.0714 87.6993C73.0714 87.6907 73.0714 87.682 73.0714 87.6734C73.0714 87.6648 73.0714 87.6562 73.0714 87.6476C73.0714 87.6389 73.0714 87.6303 73.0714 87.6217C73.0714 87.6131 73.0714 87.6045 73.0714 87.5959C73.0714 87.5873 73.0714 87.5787 73.0714 87.5701C73.0714 87.5615 73.0714 87.5528 73.0714 87.5442C73.0714 87.5356 73.0714 87.527 73.0714 87.5184C73.0714 87.5098 73.0714 87.5012 73.0714 87.4926C73.0714 87.484 73.0714 87.4754 73.0714 87.4669C73.0714 87.4583 73.0714 87.4497 73.0714 87.4411C73.0714 87.4325 73.0714 87.4239 73.0714 87.4153C73.0714 87.4067 73.0714 87.3981 73.0714 87.3895C73.0714 87.3809 73.0714 87.3724 73.0714 87.3638C73.0714 87.3552 73.0714 87.3466 73.0714 87.338C73.0714 87.3295 73.0714 87.3209 73.0714 87.3123C73.0714 87.3037 73.0714 87.2951 73.0714 87.2866C73.0714 87.278 73.0714 87.2694 73.0714 87.2608C73.0714 87.2523 73.0714 87.2437 73.0714 87.2351C73.0714 87.2266 73.0714 87.218 73.0714 87.2094C73.0714 87.2009 73.0714 87.1923 73.0714 87.1837C73.0714 87.1752 73.0714 87.1666 73.0714 87.1581C73.0714 87.1495 73.0714 87.1409 73.0714 87.1324C73.0714 87.1238 73.0714 87.1153 73.0714 87.1067C73.0714 87.0982 73.0714 87.0896 73.0714 87.0811C73.0714 87.0725 73.0714 87.064 73.0714 87.0554C73.0714 87.0469 73.0714 87.0383 73.0714 87.0298C73.0714 87.0212 73.0714 87.0127 73.0714 87.0042C73.0714 86.9956 73.0714 86.9871 73.0714 86.9785C73.0714 86.97 73.0714 86.9615 73.0714 86.9529C73.0714 86.9444 73.0714 86.9359 73.0714 86.9273C73.0714 86.9188 73.0714 86.9103 73.0714 86.9017C73.0714 86.8932 73.0714 86.8847 73.0714 86.8761C73.0714 86.8676 73.0714 86.8591 73.0714 86.8506C73.0714 86.842 73.0714 86.8335 73.0714 86.825C73.0714 86.8165 73.0714 86.808 73.0714 86.7994C73.0714 86.7909 73.0714 86.7824 73.0714 86.7739C73.0714 86.7654 73.0714 86.7569 73.0714 86.7484C73.0714 86.7398 73.0714 86.7313 73.0714 86.7228C73.0714 86.7143 73.0714 86.7058 73.0714 86.6973C73.0714 86.6888 73.0714 86.6803 73.0714 86.6718C73.0714 86.6633 73.0714 86.6548 73.0714 86.6463C73.0714 86.6378 73.0714 86.6293 73.0714 86.6208C73.0714 86.6123 73.0714 86.6038 73.0714 86.5953C73.0714 86.5868 73.0714 86.5783 73.0714 86.5698C73.0714 86.5613 73.0714 86.5529 73.0714 86.5444C73.0714 86.5359 73.0714 86.5274 73.0714 86.5189C73.0714 86.5104 73.0714 86.502 73.0714 86.4935C73.0714 86.485 73.0714 86.4765 73.0714 86.468C73.0714 86.4596 73.0714 86.4511 73.0714 86.4426C73.0714 86.4341 73.0714 86.4257 73.0714 86.4172C73.0714 86.4087 73.0714 86.4002 73.0714 86.3918C73.0714 86.3833 73.0714 86.3748 73.0714 86.3664C73.0714 86.3579 73.0714 86.3494 73.0714 86.341C73.0714 86.3325 73.0714 86.3241 73.0714 86.3156C73.0714 86.3071 73.0714 86.2987 73.0714 86.2902C73.0714 86.2818 73.0714 86.2733 73.0714 86.2649C73.0714 86.2564 73.0714 86.248 73.0714 86.2395C73.0714 86.2311 73.0714 86.2226 73.0714 86.2142C73.0714 86.2057 73.0714 86.1973 73.0714 86.1888C73.0714 86.1804 73.0714 86.1719 73.0714 86.1635C73.0714 86.1551 73.0714 86.1466 73.0714 86.1382C73.0714 86.1297 73.0714 86.1213 73.0714 86.1129C73.0714 86.1044 73.0714 86.096 73.0714 86.0876C73.0714 86.0791 73.0714 86.0707 73.0714 86.0623C73.0714 86.0539 73.0714 86.0454 73.0714 86.037C73.0714 86.0286 73.0714 86.0202 73.0714 86.0117C73.0714 86.0033 73.0714 85.9949 73.0714 85.9865C73.0714 85.9781 73.0714 85.9696 73.0714 85.9612C73.0714 85.9528 73.0714 85.9444 73.0714 85.936C73.0714 85.9276 73.0714 85.9192 73.0714 85.9108C73.0714 85.9023 73.0714 85.8939 73.0714 85.8855C73.0714 85.8771 73.0714 85.8687 73.0714 85.8603C73.0714 85.8519 73.0714 85.8435 73.0714 85.8351C73.0714 85.8267 73.0714 85.8183 73.0714 85.8099C73.0714 85.8015 73.0714 85.7931 73.0714 85.7847C73.0714 85.7763 73.0714 85.7679 73.0714 85.7596C73.0714 85.7512 73.0714 85.7428 73.0714 85.7344C73.0714 85.726 73.0714 85.7176 73.0714 85.7092C73.0714 85.7008 73.0714 85.6925 73.0714 85.6841C73.0714 85.6757 73.0714 85.6673 73.0714 85.6589C73.0714 85.6506 73.0714 85.6422 73.0714 85.6338C73.0714 85.6254 73.0714 85.6171 73.0714 85.6087C73.0714 85.6003 73.0714 85.5919 73.0714 85.5836C73.0714 85.5752 73.0714 85.5668 73.0714 85.5585C73.0714 85.5501 73.0714 85.5417 73.0714 85.5334C73.0714 85.525 73.0714 85.5167 73.0714 85.5083C73.0714 85.4999 73.0714 85.4916 73.0714 85.4832C73.0714 85.4749 73.0714 85.4665 73.0714 85.4582C73.0714 85.4498 73.0714 85.4415 73.0714 85.4331C73.0714 85.4248 73.0714 85.4164 73.0714 85.4081C73.0714 85.3997 73.0714 85.3914 73.0714 85.383C73.0714 85.3747 73.0714 85.3664 73.0714 85.358C73.0714 85.3497 73.0714 85.3413 73.0714 85.333C73.0714 85.3247 73.0714 85.3163 73.0714 85.308C73.0714 85.2997 73.0714 85.2913 73.0714 85.283C73.0714 85.2747 73.0714 85.2663 73.0714 85.258C73.0714 85.2497 73.0714 85.2414 73.0714 85.233C73.0714 85.2247 73.0714 85.2164 73.0714 85.2081C73.0714 85.1998 73.0714 85.1914 73.0714 85.1831C73.0714 85.1748 73.0714 85.1665 73.0714 85.1582C73.0714 85.1499 73.0714 85.1415 73.0714 85.1332C73.0714 85.1249 73.0714 85.1166 73.0714 85.1083C73.0714 85.1 73.0714 85.0917 73.0714 85.0834C73.0714 85.0751 73.0714 85.0668 73.0714 85.0585C73.0714 85.0502 73.0714 85.0419 73.0714 85.0336C73.0714 85.0253 73.0714 85.017 73.0714 85.0087C73.0714 85.0004 73.0714 84.9921 73.0714 84.9838C73.0714 84.9755 73.0714 84.9672 73.0714 84.959C73.0714 84.9507 73.0714 84.9424 73.0714 84.9341C73.0714 84.9258 73.0714 84.9175 73.0714 84.9092C73.0714 84.901 73.0714 84.8927 73.0714 84.8844C73.0714 84.8761 73.0714 84.8678 73.0714 84.8596C73.0714 84.8513 73.0714 84.843 73.0714 84.8348C73.0714 84.8265 73.0714 84.8182 73.0714 84.8099C73.0714 84.8017 73.0714 84.7934 73.0714 84.7851C73.0714 84.7769 73.0714 84.7686 73.0714 84.7604C73.0714 84.7521 73.0714 84.7438 73.0714 84.7356C73.0714 84.7273 73.0714 84.7191 73.0714 84.7108C73.0714 84.7025 73.0714 84.6943 73.0714 84.686C73.0714 84.6778 73.0714 84.6695 73.0714 84.6613C73.0714 84.653 73.0714 84.6448 73.0714 84.6365C73.0714 84.6283 73.0714 84.6201 73.0714 84.6118C73.0714 84.6036 73.0714 84.5953 73.0714 84.5871C73.0714 84.5788 73.0714 84.5706 73.0714 84.5624C73.0714 84.5541 73.0714 84.5459 73.0714 84.5377C73.0714 84.5294 73.0714 84.5212 73.0714 84.513C73.0714 84.5048 73.0714 84.4965 73.0714 84.4883C73.0714 84.4801 73.0714 84.4718 73.0714 84.4636C73.0714 84.4554 73.0714 84.4472 73.0714 84.439C73.0714 84.4307 73.0714 84.4225 73.0714 84.4143C73.0714 84.4061 73.0714 84.3979 73.0714 84.3897C73.0714 84.3815 73.0714 84.3732 73.0714 84.365C73.0714 84.3568 73.0714 84.3486 73.0714 84.3404C73.0714 84.3322 73.0714 84.324 73.0714 84.3158C73.0714 84.3076 73.0714 84.2994 73.0714 84.2912C73.0714 84.283 73.0714 84.2748 73.0714 84.2666C73.0714 84.2584 73.0714 84.2502 73.0714 84.242H69.0714ZM50.5 65.6741C60.7572 65.6741 69.0714 73.9858 69.0714 84.242H73.0714C73.0714 71.7757 62.9654 61.6741 50.5 61.6741V65.6741ZM4.5 84.242C4.5 73.9858 12.8143 65.6741 23.0714 65.6741V61.6741C10.606 61.6741 0.5 71.7757 0.5 84.242H4.5ZM96.5 87.7143V98H100.5V87.7143H96.5ZM98.5 96H81.3571V100H98.5V96ZM81.3571 72.5714C89.7203 72.5714 96.5 79.3511 96.5 87.7143H100.5C100.5 77.142 91.9295 68.5714 81.3571 68.5714V72.5714ZM77.9286 54.8571C71.459 54.8571 66.2143 49.6125 66.2143 43.1429H62.2143C62.2143 51.8216 69.2498 58.8571 77.9286 58.8571V54.8571ZM89.6429 43.1429C89.6429 49.6125 84.3982 54.8571 77.9286 54.8571V58.8571C86.6073 58.8571 93.6429 51.8216 93.6429 43.1429H89.6429ZM77.9286 31.4286C84.3982 31.4286 89.6429 36.6732 89.6429 43.1429H93.6429C93.6429 34.4641 86.6073 27.4286 77.9286 27.4286V31.4286ZM77.9286 27.4286C69.2498 27.4286 62.2143 34.4641 62.2143 43.1429H66.2143C66.2143 36.6732 71.459 31.4286 77.9286 31.4286V27.4286Z" fill="#D3A394"/>
</svg>
