<svg width="24" height="24" viewBox="0 0 24 24" fill="none" xmlns="http://www.w3.org/2000/svg">
<path d="M19.5 24H4.5C2 24 0 22 0 19.5V4.5C0 2 2 0 4.5 0H19.5C22 0 24 2 24 4.5V19.5C24 22 22 24 19.5 24ZM4.5 1C2.55 1 1 2.55 1 4.5V19.5C1 21.45 2.55 23 4.5 23H19.5C21.45 23 23 21.45 23 19.5V4.5C23 2.55 21.45 1 19.5 1H4.5Z" fill="black"/>
<path d="M12 19C8.7 19 6 16.3 6 13C6 9.7 8.7 7 12 7C15.3 7 18 9.7 18 13C18 16.3 15.3 19 12 19ZM12 8C9.25 8 7 10.25 7 13C7 15.75 9.25 18 12 18C14.75 18 17 15.75 17 13C17 10.25 14.75 8 12 8Z" fill="black"/>
<path d="M12 17C9.8 17 8 15.2 8 13C8 10.8 9.8 9 12 9C14.2 9 16 10.8 16 13C16 15.2 14.2 17 12 17ZM12 10C10.35 10 9 11.35 9 13C9 14.65 10.35 16 12 16C13.65 16 15 14.65 15 13C15 11.35 13.65 10 12 10Z" fill="black"/>
<path d="M17.5 5.5C16.65 5.5 16 4.85 16 4C16 3.15 16.65 2.5 17.5 2.5C18.35 2.5 19 3.15 19 4C19 4.85 18.35 5.5 17.5 5.5ZM17.5 3.5C17.2 3.5 17 3.7 17 4C17 4.3 17.2 4.5 17.5 4.5C17.8 4.5 18 4.3 18 4C18 3.7 17.8 3.5 17.5 3.5Z" fill="black"/>
</svg>
