<svg width="191" height="56" viewBox="0 0 191 56" fill="none" xmlns="http://www.w3.org/2000/svg">
<path fill-rule="evenodd" clip-rule="evenodd" d="M46.4857 53.6473H191L185.885 41.514L49.2088 41.4751C49.3838 42.7779 47.6138 50.5946 46.4857 53.6473ZM0 53.6473L42.304 53.6084C41.8761 51.4501 42.3818 43.1473 43.1209 41.4945H0V53.6473Z" fill="#A93121"/>
<path d="M174.37 25.8028L170.5 16.3528L166.59 25.8028H174.37ZM162.039 36.9639H157.332L168.574 10.325H172.678L183.92 36.9639H178.941L176.179 30.1778H164.82L162.039 36.9639ZM153.383 36.9639H148.754V25.6084H136.617V36.9639H131.949V10.3834H136.617V21.2334H148.754V10.3834H153.383V36.9639ZM119.91 18.1028L105.984 36.9639H101.88V10.3834H106.548V29.2834L120.474 10.3834H124.578V36.9445H119.91V18.1028ZM94.508 36.9639H64.0297V10.3834H68.6977V32.5889H76.9251V10.3834H81.5931V32.5889H89.8205V10.3834H94.4886V36.9639H94.508ZM7.97452 14.6417C6.86586 14.6417 5.89336 14.6806 5.057 14.7584V21.4667H8.20792C9.39437 21.4667 10.3474 21.1556 11.0671 20.5528C11.7867 19.95 12.1563 19.075 12.1563 17.9278C12.1563 16.8584 11.7867 16.0417 11.0476 15.4778C10.3085 14.9334 9.29712 14.6417 7.97452 14.6417ZM8.34407 25.5306H5.057V32.55C6.24346 32.6861 7.27431 32.7445 8.13012 32.7445C11.3783 32.7445 12.9926 31.4611 12.9926 28.9139C12.9926 27.8056 12.5842 26.9695 11.7867 26.3861C10.9504 25.8222 9.82228 25.5306 8.34407 25.5306ZM0.388977 36.925V10.4806C3.13144 10.3445 5.6794 10.2861 8.05232 10.2861C10.9893 10.2861 13.1677 10.8695 14.6264 12.0361C16.0658 13.2028 16.7854 14.7972 16.7854 16.8584C16.7854 19.7167 15.5212 21.7195 12.9926 22.8861V22.9639C14.4319 23.3528 15.5795 24.0528 16.4159 25.1028C17.2522 26.1528 17.6607 27.4945 17.6607 29.1472C17.6607 31.7334 16.766 33.6972 14.996 35.0584C13.226 36.4195 10.8142 37.1 7.78001 37.1C4.7458 37.1 2.27564 37.0417 0.388977 36.925Z" fill="#A4BEBB"/>
<path d="M34.9323 17.1696C36.9551 16.8002 39.2892 16.6058 40.9035 14.4669C42.4984 12.8335 41.876 9.91687 40.7479 7.93353C40.0088 6.63076 38.5889 5.17242 35.8076 4.47242C31.1007 3.30576 27.9692 6.1252 26.0825 9.00298C24.7405 11.0252 23.5151 14.7002 23.2817 17.1113C22.8344 21.8363 23.2623 27.3585 25.5963 34.3391C26.1409 34.3196 37.3052 36.0502 47.3026 31.2669C55.8023 27.203 56.7942 22.4196 56.7942 22.4196C56.7942 22.4196 59.206 18.4724 51.2315 15.7502C44.5018 65.9558 40.2422 73.9863 48.1973 12.2696C48.1973 12.2696 55.4327 11.8808 58.428 16.7419C62.5126 23.353 56.697 29.7696 56.0746 30.6446C55.0632 32.0446 50.1423 37.0808 40.534 38.4224C28.2026 40.1335 24.0597 38.6558 24.0597 38.6558C24.0597 38.3446 17.5828 24.7919 21.0644 11.453C24.2737 -0.913688 34.4266 0.0390897 34.6017 0.0196452C34.7573 0.0196452 41.8177 0.330756 45.202 7.05853C47.8861 12.3863 42.8096 18.1224 39.6782 18.978C36.1188 20.6113 31.1007 20.0474 29.6225 16.6446C33.8626 17.3835 33.318 17.2669 34.9323 17.1696Z" fill="#A93121"/>
<path d="M182.442 48.4556L181.178 45.4805L179.913 48.4556H182.442ZM178.708 51.3722H177.852L180.847 44.3528H181.567L184.562 51.3722H183.648L182.753 49.2528H179.563L178.708 51.3722ZM176.14 51.3722H175.284V45.1889H172.756L172.639 46.5111C172.561 47.3667 172.464 48.125 172.328 48.7278C172.211 49.35 172.056 49.8361 171.919 50.1861C171.764 50.5361 171.608 50.8083 171.414 51.0028C171.219 51.1972 171.025 51.3139 170.85 51.3528C170.655 51.3917 170.441 51.4111 170.208 51.3722L170.227 50.5167C170.363 50.5361 170.48 50.5167 170.577 50.4778C170.675 50.4389 170.791 50.3417 170.908 50.1667C171.044 49.9917 171.18 49.7583 171.278 49.4278C171.55 48.6889 171.744 47.4639 171.861 45.7722L171.958 44.3722H176.14V51.3722ZM168.769 51.3722H164.742V44.3917H168.691V45.1889H165.598V47.4444H168.399V48.2417H165.598V50.575H168.788V51.3722H168.769ZM158.635 45.1889L158.538 46.4333C158.479 47.4639 158.324 48.3778 158.11 49.1556C157.896 49.8944 157.701 50.3611 157.526 50.575H161.066V45.1889H158.635ZM156.651 52.675H155.854V50.575H156.593C156.807 50.3028 157.04 49.7583 157.274 48.9417C157.507 48.1444 157.663 47.075 157.74 45.7722L157.818 44.3722H161.922V50.5556H162.875V52.6556H162.078V51.3528H156.651V52.675ZM151.127 51.3722H147.082V44.3917H151.03V45.1889H147.937V47.4444H150.738V48.2417H147.937V50.575H151.127V51.3722ZM138.135 44.3917H138.99V46.9778C139.457 46.9389 139.768 46.9194 139.924 46.9194C140.76 46.9194 141.402 47.1139 141.85 47.4833C142.297 47.8528 142.511 48.3972 142.511 49.0778C142.511 49.8167 142.278 50.3806 141.791 50.7694C141.305 51.1778 140.624 51.3722 139.749 51.3722C139.418 51.3722 139.127 51.3722 138.874 51.3528C138.64 51.3528 138.387 51.3333 138.154 51.3333V44.3917H138.135ZM139.846 47.7361C139.613 47.7361 139.321 47.7556 138.971 47.7944V50.5556C139.516 50.575 139.788 50.5944 139.807 50.5944C140.994 50.5944 141.577 50.1083 141.577 49.1167C141.577 48.6694 141.422 48.3389 141.13 48.0861C140.838 47.8528 140.41 47.7361 139.846 47.7361ZM144.475 51.3722H143.62V44.3917H144.475V51.3722ZM133.564 45.1694C133.447 45.1694 133.097 45.1694 132.514 45.1889V47.8917C132.941 47.9306 133.272 47.95 133.525 47.95C134.031 47.95 134.439 47.8333 134.731 47.5805C135.023 47.3278 135.178 46.9778 135.178 46.55C135.178 46.1222 135.042 45.7917 134.77 45.5389C134.497 45.2861 134.089 45.1694 133.564 45.1694ZM132.514 48.6889V51.3722H131.658V44.3917C131.93 44.3917 132.241 44.3917 132.552 44.3722C132.864 44.3722 133.175 44.3528 133.486 44.3528C134.4 44.3528 135.062 44.5667 135.47 44.975C135.878 45.3833 136.073 45.8889 136.073 46.5305C136.073 47.1333 135.859 47.6583 135.412 48.0861C134.984 48.5139 134.361 48.7278 133.564 48.7278C133.136 48.7278 132.786 48.7083 132.514 48.6889ZM126.892 47.9306C126.581 47.9306 126.251 47.95 125.881 47.9889V50.575C126.251 50.5944 126.562 50.6139 126.834 50.6139C127.398 50.6139 127.826 50.4972 128.098 50.2639C128.39 50.0306 128.526 49.7 128.526 49.2528C128.526 48.8444 128.39 48.5139 128.098 48.2806C127.846 48.0472 127.437 47.9306 126.892 47.9306ZM125.045 51.3722V44.3917H128.993V45.1889H125.881V47.1917C126.231 47.1528 126.581 47.1333 126.951 47.1333C127.729 47.1333 128.332 47.3083 128.76 47.6778C129.188 48.0472 129.402 48.5528 129.402 49.175C129.402 49.8944 129.168 50.4389 128.701 50.8278C128.235 51.2167 127.573 51.4111 126.717 51.4111C126.581 51.4111 126.27 51.4111 125.764 51.3917C125.667 51.3917 125.57 51.3917 125.453 51.3917C125.336 51.3917 125.239 51.3917 125.181 51.3722C125.123 51.3722 125.064 51.3722 125.045 51.3722ZM116.74 47.8722C116.74 48.65 116.992 49.3306 117.518 49.875C118.023 50.4 118.665 50.6722 119.404 50.6722C120.182 50.6722 120.824 50.4 121.31 49.875C121.816 49.35 122.049 48.6694 122.049 47.8722C122.049 47.075 121.797 46.4139 121.291 45.8694C120.785 45.3444 120.143 45.0722 119.404 45.0722C118.646 45.0722 118.004 45.3444 117.498 45.8694C116.992 46.3944 116.74 47.075 116.74 47.8722ZM115.845 47.8722C115.845 46.8611 116.175 46.0055 116.856 45.325C117.537 44.625 118.373 44.2944 119.404 44.2944C120.435 44.2944 121.271 44.625 121.952 45.3055C122.633 45.9861 122.964 46.8417 122.964 47.8917C122.964 48.9222 122.633 49.7778 121.952 50.4583C121.271 51.1389 120.435 51.4694 119.404 51.4694C118.393 51.4694 117.537 51.1389 116.856 50.4583C116.175 49.7972 115.845 48.9222 115.845 47.8722ZM110.379 45.1889L110.282 46.4333C110.224 47.4639 110.068 48.3778 109.854 49.1556C109.64 49.8944 109.446 50.3611 109.271 50.575H112.811V45.1889H110.379ZM108.395 52.675H107.598V50.575H108.337C108.551 50.3028 108.784 49.7583 109.018 48.9417C109.251 48.1444 109.407 47.075 109.485 45.7722L109.562 44.3722H113.666V50.5556H114.619V52.6556H113.822V51.3528H108.395V52.675ZM102.872 51.3722H98.826V44.3917H102.774V45.1889H99.6818V47.4444H102.483V48.2417H99.6818V50.575H102.872V51.3722ZM93.8662 45.1889H91.4155V44.3917H97.1533V45.1889H94.722V51.3722H93.8662V45.1889ZM88.9259 45.7917L84.6858 51.3722H83.9467V44.3917H84.8025V49.9722L89.0426 44.3917H89.7817V51.3722H88.9259V45.7917ZM81.3209 51.3722H73.4825V44.3917H74.3383V50.575H76.9835V44.3917H77.8393V50.575H80.4845V44.3917H81.3404V51.3722H81.3209ZM68.9117 45.1694C68.795 45.1694 68.4449 45.1694 67.8614 45.1889V47.8917C68.2893 47.9306 68.62 47.95 68.8728 47.95C69.3785 47.95 69.787 47.8333 70.0787 47.5805C70.3705 47.3278 70.5261 46.9778 70.5261 46.55C70.5261 46.1222 70.3899 45.7917 70.1176 45.5389C69.8453 45.2861 69.4563 45.1694 68.9117 45.1694ZM67.8614 48.6889V51.3722H67.0056V44.3917C67.2779 44.3917 67.5891 44.3917 67.9003 44.3722C68.2115 44.3722 68.5227 44.3528 68.8339 44.3528C69.7481 44.3528 70.4094 44.5667 70.8178 44.975C71.2263 45.3833 71.4208 45.8889 71.4208 46.5305C71.4208 47.1333 71.2068 47.6583 70.7595 48.0861C70.3316 48.5139 69.7092 48.7278 68.9117 48.7278C68.4838 48.7278 68.1337 48.7083 67.8614 48.6889ZM64.8078 51.3722H60.7621V44.3917H64.7105V45.1889H61.6179V47.4444H64.4188V48.2417H61.6179V50.575H64.8078V51.3722ZM55.9774 45.15C55.7829 45.15 55.4328 45.1694 54.9271 45.1889V47.4444H56.0358C56.4248 47.4444 56.7554 47.3472 57.0083 47.1333C57.2611 46.9194 57.3778 46.6472 57.3778 46.2778C57.3973 45.5389 56.9305 45.15 55.9774 45.15ZM56.0552 48.1833H54.9271V50.5556C55.1994 50.575 55.5495 50.5944 55.9969 50.5944C56.522 50.5944 56.9305 50.4778 57.2028 50.2639C57.4945 50.05 57.6307 49.7389 57.6307 49.3111C57.6307 48.9417 57.4945 48.6694 57.2222 48.475C56.9499 48.2806 56.5609 48.1833 56.0552 48.1833ZM54.0908 51.3528V44.3917C55.0244 44.3722 55.6468 44.3528 55.9969 44.3528C56.7554 44.3528 57.3195 44.5083 57.689 44.8C58.0586 45.1111 58.2336 45.5194 58.2336 46.0639C58.2336 46.4722 58.1364 46.8028 57.9224 47.075C57.7085 47.3472 57.4167 47.5417 57.0472 47.6778V47.6972C57.4945 47.775 57.8446 47.95 58.1169 48.2417C58.3698 48.5333 58.5059 48.9028 58.5059 49.35C58.5059 50.0111 58.2725 50.5167 57.8252 50.8667C57.3778 51.2167 56.7554 51.3722 55.9774 51.3722C55.1994 51.4111 54.577 51.3917 54.0908 51.3528Z" fill="#FEFEFE"/>
</svg>
