<svg width="24" height="24" viewBox="0 0 24 24" fill="none" xmlns="http://www.w3.org/2000/svg">
<path d="M12 12.15C9.60002 12.15 7.65002 10.2 7.65002 7.8C7.65002 5.4 9.60002 3.5 12 3.5C14.4 3.5 16.35 5.45 16.35 7.85C16.35 10.25 14.4 12.15 12 12.15ZM12 4.5C10.15 4.5 8.65002 6 8.65002 7.85C8.65002 9.7 10.15 11.2 12 11.2C13.85 11.2 15.35 9.7 15.35 7.85C15.35 6 13.85 4.5 12 4.5Z" fill="black"/>
<path d="M12 10.0498C10.75 10.0498 9.75 9.0498 9.75 7.7998C9.75 6.5498 10.75 5.5498 12 5.5498C13.25 5.5498 14.25 6.5498 14.25 7.7998C14.25 9.0498 13.25 10.0498 12 10.0498ZM12 6.5998C11.3 6.5998 10.75 7.1498 10.75 7.8498C10.75 8.5498 11.3 9.0998 12 9.0998C12.7 9.0998 13.25 8.5498 13.25 7.8498C13.25 7.1498 12.7 6.5998 12 6.5998Z" fill="black"/>
<path d="M8.60002 20.5002C8.20002 20.5002 7.80002 20.3502 7.45002 20.0502C7.15002 19.7502 6.95002 19.3502 6.95002 18.9002C6.95002 18.4502 7.10002 18.0502 7.40002 17.7502L9.55002 15.7002C9.50002 15.7002 9.40002 15.6502 9.35002 15.6502C8.55002 15.4002 7.80002 15.0502 7.10002 14.6002C6.55002 14.2502 6.20002 13.6002 6.15002 12.9502C6.15002 12.6002 6.25002 12.3002 6.45002 12.0502C6.95002 11.4002 7.95002 11.2502 8.60002 11.8002C10.55 13.2502 13.25 13.2502 15.15 11.8002C15.4 11.6002 15.75 11.4502 16.1 11.4502C16.5 11.4502 16.9 11.6002 17.2 11.9002C17.5 12.2002 17.65 12.5502 17.65 13.0002C17.65 13.7002 17.3 14.3002 16.7 14.7002C16 15.1502 15.25 15.5002 14.5 15.7502C14.45 15.7502 14.35 15.8002 14.3 15.8002L16.45 17.8502C16.75 18.1502 16.95 18.6002 16.9 19.0002C16.9 19.4502 16.7 19.8502 16.4 20.1502C15.75 20.7502 14.7 20.7502 14.1 20.1002L12 17.7502L9.75002 20.0002C9.45002 20.3502 9.05002 20.5002 8.60002 20.5002ZM7.75002 12.4002C7.60002 12.4002 7.45002 12.4502 7.35002 12.6002C7.30002 12.7002 7.25002 12.8002 7.25002 12.9002C7.25002 13.2502 7.45002 13.5502 7.70002 13.7502C8.30002 14.1502 9.00002 14.4502 9.70002 14.7002C10.05 14.8002 10.35 14.9002 10.7 14.9502C10.9 15.0002 11.05 15.1002 11.1 15.3002C11.15 15.5002 11.1 15.7002 10.95 15.8002L8.15002 18.5002C8.05002 18.6002 8.00002 18.7502 8.00002 18.9502C8.00002 19.1002 8.05002 19.2502 8.20002 19.4002C8.45002 19.6502 8.85002 19.6502 9.10002 19.4002L11.7 16.7502C11.9 16.5502 12.25 16.5502 12.4 16.7502L15 19.4002C15.25 19.6502 15.65 19.6502 15.9 19.4002C16 19.3002 16.1 19.1502 16.1 18.9502C16.1 18.7502 16.05 18.6502 15.9 18.5002L13.1 15.8002C12.95 15.6502 12.9 15.4502 12.95 15.3002C13 15.1002 13.15 15.0002 13.35 14.9502C13.7 14.9002 14.05 14.8002 14.35 14.7002C15.05 14.5002 15.7 14.1502 16.3 13.7502C16.6 13.5502 16.75 13.2502 16.8 12.9002C16.8 12.7502 16.75 12.6502 16.65 12.5502C16.55 12.4502 16.45 12.4002 16.25 12.4002C16.15 12.4002 16 12.4502 15.9 12.5002C13.6 14.2002 10.4 14.2002 8.10002 12.5002C8.00002 12.4502 7.90002 12.4002 7.75002 12.4002Z" fill="black"/>
<path d="M19.5 24H4.5C2 24 0 22 0 19.5V4.5C0 2 2 0 4.5 0H19.5C22 0 24 2 24 4.5V19.5C24 22 22 24 19.5 24ZM4.5 1C2.55 1 1 2.55 1 4.5V19.5C1 21.45 2.55 23 4.5 23H19.5C21.45 23 23 21.45 23 19.5V4.5C23 2.55 21.45 1 19.5 1H4.5Z" fill="black"/>
</svg>
