<svg width="101" height="100" viewBox="0 0 101 100" fill="none" xmlns="http://www.w3.org/2000/svg">
<path d="M23.0714 77.3792H25.0714V75.3792H23.0714V77.3792ZM23.0714 97.9372H21.0714C21.0714 98.6947 21.4993 99.3871 22.1767 99.7259C22.8541 100.065 23.6648 99.9919 24.2709 99.5376L23.0714 97.9372ZM50.5 77.3792V75.3792H49.8337L49.3005 75.7788L50.5 77.3792ZM29.9286 27.4106H27.9286V31.4106H29.9286V27.4106ZM71.0714 31.4106H73.0714V27.4106H71.0714V31.4106ZM29.9286 47.9686H27.9286V51.9686H29.9286V47.9686ZM57.3571 51.9686H59.3571V47.9686H57.3571V51.9686ZM21.0714 77.3792V97.9372H25.0714V77.3792H21.0714ZM24.2709 99.5376L51.6995 78.9796L49.3005 75.7788L21.8719 96.3369L24.2709 99.5376ZM50.5 79.3792H91.6429V75.3792H50.5V79.3792ZM91.6429 79.3792C96.5381 79.3792 100.5 75.422 100.5 70.5266H96.5C96.5 73.2103 94.3316 75.3792 91.6429 75.3792V79.3792ZM100.5 70.5266V8.85254H96.5V70.5266H100.5ZM100.5 8.85254C100.5 3.95716 96.5381 0 91.6429 0V4C94.3316 4 96.5 6.16886 96.5 8.85254H100.5ZM91.6429 0H9.35714V4H91.6429V0ZM9.35714 0C4.46185 0 0.5 3.95716 0.5 8.85254H4.5C4.5 6.16886 6.66843 4 9.35714 4V0ZM0.5 8.85254V70.5266H4.5V8.85254H0.5ZM0.5 70.5266C0.5 75.422 4.46185 79.3792 9.35714 79.3792V75.3792C6.66843 75.3792 4.5 73.2103 4.5 70.5266H0.5ZM9.35714 79.3792H23.0714V75.3792H9.35714V79.3792ZM29.9286 31.4106H71.0714V27.4106H29.9286V31.4106ZM29.9286 51.9686H57.3571V47.9686H29.9286V51.9686Z" fill="#D3A394"/>
</svg>
