<svg width="24" height="24" viewBox="0 0 24 24" fill="none" xmlns="http://www.w3.org/2000/svg">
<path d="M12.75 20.5H10C9.55001 20.5 9.15001 20.1 9.15001 19.65V13.1H8.30001C7.85001 13.1 7.45001 12.7 7.45001 12.25V9.5C7.45001 9.05 7.80001 8.65 8.30001 8.65H9.15001V7.15C9.15001 5.15 10.8 3.5 12.8 3.5H15.4C15.85 3.5 16.25 3.9 16.25 4.35V7.1C16.25 7.55 15.9 7.95 15.4 7.95H14.2C13.85 7.95 13.6 8.2 13.6 8.55V8.7H15.75C16 8.7 16.2 8.8 16.35 9C16.5 9.2 16.6 9.4 16.55 9.65L16.25 12.4C16.2 12.85 15.85 13.15 15.4 13.15H13.55V19.75C13.55 20.15 13.2 20.5 12.75 20.5ZM10.15 19.5H12.6V12.1H15.3L15.55 9.65H12.6V8.5C12.6 7.6 13.3 6.9 14.2 6.9H15.25V4.5H12.8C11.35 4.5 10.15 5.7 10.15 7.15V9.65H8.45001V12.1H10.15V19.5Z" fill="black"/>
<path d="M19.5 24H4.5C2 24 0 22 0 19.5V4.5C0 2 2 0 4.5 0H19.5C22 0 24 2 24 4.5V19.5C24 22 22 24 19.5 24ZM4.5 1C2.55 1 1 2.55 1 4.5V19.5C1 21.45 2.55 23 4.5 23H19.5C21.45 23 23 21.45 23 19.5V4.5C23 2.55 21.45 1 19.5 1H4.5Z" fill="black"/>
</svg>
