<svg width="100" height="100" viewBox="0 0 100 100" fill="none" xmlns="http://www.w3.org/2000/svg">
<path d="M43.2005 36.2857L49.9839 43.1429L56.7673 36.2857C60.5137 32.4986 66.5877 32.4986 70.3341 36.2857C74.0805 40.0728 74.0805 46.2129 70.3341 50L49.9839 70.5714L29.6336 50C25.8873 46.2129 25.8873 40.0728 29.6336 36.2857C33.38 32.4986 39.4541 32.4986 43.2005 36.2857Z" stroke="#D3A394" stroke-width="4"/>
<path d="M2.5 50C2.5 76.5097 23.7593 98 49.9839 98C76.2085 98 97.4677 76.5097 97.4677 50C97.4677 23.4903 76.2085 2 49.9839 2C23.7593 2 2.5 23.4903 2.5 50Z" stroke="#D3A394" stroke-width="4"/>
</svg>
