<svg width="24" height="24" viewBox="0 0 24 24" fill="none" xmlns="http://www.w3.org/2000/svg">
<path d="M12.25 17.2999C12.25 17.2999 12.2 17.2999 12.25 17.2999C7.85003 17.1999 4.50003 12.3499 3.50003 7.7999C3.45003 7.4999 3.50003 7.2499 3.70003 6.9999C3.90003 6.7999 4.15003 6.6499 4.45003 6.6499H6.35003C6.80003 6.6499 7.25003 6.8999 7.50003 7.2999L7.55003 7.3499V7.4499C7.90003 9.1499 8.75003 10.9499 9.60003 11.6999C9.80003 9.9999 9.85003 8.9499 9.00003 7.8999C8.80003 7.6499 8.80003 7.3499 8.90003 7.0999C9.05003 6.8499 9.30003 6.6499 9.60003 6.6499H12.5C13.35 6.6499 13.65 7.1499 13.65 7.5499V11.0999C14.8 9.7999 15.6 8.4999 16.1 7.0999L16.15 6.9999C16.3 6.7499 16.55 6.6499 16.85 6.6499H19.05C19.4 6.6499 19.75 6.8499 19.9 7.1499C20.1 7.4499 20.1 7.8499 19.9 8.1499L17.55 12.1499C17.5 12.2499 17.5 12.3999 17.6 12.4999C18.6 13.2999 19.45 14.2499 20.15 15.3999C20.45 15.6999 20.5 16.1499 20.3 16.5499C20.1 16.9499 19.75 17.1999 19.3 17.1999H16.55L16.5 17.0499C15.8 15.9499 14.85 15.0499 13.7 14.3499L13.6 14.2999L13.5 16.0499C13.5 16.3999 13.35 16.7499 13.1 16.9999C12.9 17.1999 12.6 17.2999 12.25 17.2999ZM4.50003 7.6999C5.70003 13.1999 9.35003 16.2499 12.2 16.3499C12.3 16.3499 12.35 16.2999 12.4 16.2499C12.45 16.1999 12.5 16.0999 12.5 15.9999L12.55 14.2499C12.55 13.8499 12.8 13.4999 13.2 13.2999C13.55 13.1499 13.95 13.1999 14.25 13.4499C15.4 14.1999 16.4 15.0999 17.15 16.2499H19.35C19.4 16.2499 19.45 16.2499 19.45 16.1999C19.45 16.1499 19.45 16.0999 19.45 16.0999L19.4 15.9999C18.75 14.9499 17.95 14.0499 17.05 13.2999C16.55 12.8999 16.45 12.1999 16.75 11.6499L19.1 7.6499H17C16.4 9.1999 15.5 10.5999 14.25 11.9999C14 12.2999 13.6 12.3499 13.25 12.2499C12.9 12.0999 12.65 11.7999 12.65 11.3999V7.6999C12.6 7.6999 12.55 7.6999 12.5 7.6999H10.1C10.95 9.0499 10.8 10.3999 10.6 11.9999C10.55 12.3499 10.35 12.6499 10 12.7499C9.70003 12.8999 9.35003 12.8499 9.05003 12.5999C7.90003 11.6499 6.95003 9.4999 6.55003 7.7999C6.50003 7.7499 6.40003 7.6999 6.30003 7.6999H4.50003Z" fill="black"/>
<path d="M19.5 24H4.5C2 24 0 22 0 19.5V4.5C0 2 2 0 4.5 0H19.5C22 0 24 2 24 4.5V19.5C24 22 22 24 19.5 24ZM4.5 1C2.55 1 1 2.55 1 4.5V19.5C1 21.45 2.55 23 4.5 23H19.5C21.45 23 23 21.45 23 19.5V4.5C23 2.55 21.45 1 19.5 1H4.5Z" fill="black"/>
</svg>
